<svg width="38" height="38" viewBox="0 0 38 38" fill="none" xmlns="http://www.w3.org/2000/svg">
<path d="M15 11.7998C15 11.2476 15.4469 10.7998 16 10.7998C16.5531 10.7998 17 11.2476 17 11.7998V12.7998H21V11.7998C21 11.2476 21.4469 10.7998 22 10.7998C22.5531 10.7998 23 11.2476 23 11.7998V12.7998H24.5C25.3281 12.7998 26 13.4714 26 14.2998V15.7998H12V14.2998C12 13.4714 12.6716 12.7998 13.5 12.7998H15V11.7998ZM26 25.2998C26 26.1279 25.3281 26.7998 24.5 26.7998H13.5C12.6716 26.7998 12 26.1279 12 25.2998V16.7998H26V25.2998Z" fill="white"/>
<path d="M38 36.7998H0V38.7998H38V36.7998Z" fill="white" mask="url(#path-1-inside-1_36_61)"/>
</svg>
