<svg width="66" height="85" viewBox="0 0 66 85" fill="none" xmlns="http://www.w3.org/2000/svg">
<path d="M17.07 71.1913L16.7456 71.2938L16.6085 71.4779L17.4195 72.0809L17.5566 71.8967L17.5613 71.5568L17.07 71.1913ZM24.8947 69.1341C24.959 68.9767 25.0256 68.8158 25.0945 68.651L33.7648 70.24C33.7655 70.4169 33.7666 70.5904 33.7676 70.7602L24.8947 69.1341ZM25.514 70.5479L25.8013 70.6006L25.6346 71.5089L25.9925 72.0271L25.5374 72.3409L25.8515 72.7958L25.333 73.1533L25.1588 74.1023L24.8715 74.0496L25.0456 73.1007L24.6879 72.5825L25.1428 72.2688L24.8289 71.8139L25.3474 71.4563L25.514 70.5479ZM26.6774 70.7612L26.9648 70.8138L26.7981 71.7222L27.156 72.2404L26.7009 72.5542L27.0149 73.009L26.4965 73.3667L26.3224 74.3154L26.0351 74.2628L26.2092 73.314L25.8515 72.7958L26.3065 72.4819L25.9925 72.0271L26.5109 71.6694L26.6774 70.7612ZM27.8411 70.9745L28.1283 71.0271L27.9617 71.9353L28.3195 72.4535L27.8645 72.7674L28.1785 73.2223L27.66 73.5799L27.486 74.5287L27.1987 74.4761L27.3727 73.5272L27.0149 73.009L27.47 72.6952L27.156 72.2404L27.6744 71.8828L27.8411 70.9745ZM29.0047 71.1877L29.2919 71.2404L29.1253 72.1487L29.4831 72.6669L29.028 72.9808L29.3421 73.4355L28.8236 73.7931L28.6496 74.7419L28.3622 74.6894L28.5363 73.7404L28.1785 73.2223L28.6336 72.9084L28.3195 72.4535L28.838 72.096L29.0047 71.1877ZM30.1682 71.4009L30.4555 71.4535L30.2889 72.3619L30.6467 72.8801L30.1916 73.1939L30.5056 73.6488L29.9872 74.0063L29.813 74.9553L29.5257 74.9026L29.6998 73.9537L29.3421 73.4355L29.7971 73.1217L29.4831 72.6669L30.0016 72.3093L30.1682 71.4009ZM31.3317 71.6141L31.6189 71.6668L31.4524 72.5751L31.8102 73.0934L31.3551 73.4072L31.6691 73.862L31.1507 74.2196L30.9766 75.1684L30.6894 75.1158L30.8634 74.167L30.5056 73.6488L30.9607 73.3349L30.6467 72.8801L31.1651 72.5224L31.3317 71.6141ZM32.4953 71.8275L32.7825 71.8801L32.616 72.7883L32.9737 73.3065L32.5187 73.6205L32.8327 74.0752L32.3142 74.4329L32.1402 75.3817L31.853 75.329L32.027 74.3802L31.6691 73.862L32.1242 73.5482L31.8102 73.0934L32.3286 72.7357L32.4953 71.8275ZM56.4833 39.3966L56.7396 37.6102L55.7173 37.4256L56.3363 36.5913C55.8632 36.2126 55.3894 35.8347 54.9154 35.4569L54.8656 35.4678L54.8591 35.4122L54.8472 35.4028L54.8575 35.399C54.8273 35.1509 54.7755 34.903 54.6885 34.7041L54.5338 34.5722C54.5338 34.5722 54.4377 31.8187 52.3938 29.4795C52.3938 29.4795 52.3656 29.2556 52.1294 28.9937L52.1313 28.9909C52.0832 28.9406 52.0356 28.8965 51.9888 28.8571C51.9832 28.8525 51.9771 28.8471 51.9712 28.8421C51.9656 28.8375 51.9595 28.8319 51.9537 28.827L51.9534 28.8272C51.9167 28.7973 51.8773 28.7673 51.8342 28.7375L51.8323 28.7403C51.5364 28.5484 51.3107 28.5558 51.3107 28.5558C48.6782 26.9061 45.9424 27.2442 45.9424 27.2442L45.7878 27.1123C45.5855 27.0597 45.3438 27.0465 45.1032 27.0538L45.4126 26.5667C45.3233 26.4555 45.2027 26.3362 45.0561 26.2128C45.0331 25.9182 45.0938 25.4712 45.2283 25.0614C45.3613 24.6563 45.5844 24.2894 45.657 24.1183L45.6824 24.129L45.6898 24.1119L45.8728 23.911L46.199 23.1237C46.199 23.1237 46.5538 22.312 45.4796 21.0779L45.4777 21.0751L45.4758 21.0723L45.474 21.0695L45.4721 21.0667L45.4703 21.0639L45.4674 21.0611L45.4656 21.0584L45.4637 21.0555L45.4619 21.0527L45.46 21.05L45.4581 21.0471L45.4563 21.0444L45.4544 21.0416L45.4525 21.0387L45.4507 21.036L45.4488 21.0332L45.4394 21.0227L45.4375 21.0199L45.4347 21.0171L45.4329 21.0143L45.43 21.0115L45.4282 21.0087L45.4254 21.0059L45.4235 21.0032L45.4018 20.9792L45.399 20.9764L45.3962 20.9736L45.3934 20.9708L45.3906 20.968L45.3887 20.9652L45.3885 20.965L45.3857 20.9622L45.3839 20.9594L45.3811 20.9566L45.3359 20.9083L45.3331 20.9055L45.3303 20.9027H45.3302L45.2361 20.8041L45.2813 20.6935L45.2841 20.6937L45.2869 20.6938H45.2897L45.2925 20.6937L45.2953 20.6936L45.2981 20.6935L45.3009 20.6934L45.3036 20.6931L45.3065 20.6928L45.3093 20.6925L45.312 20.6919L45.3148 20.6916V20.6915L45.3177 20.691L45.3204 20.6904H45.3205L45.3233 20.6898L45.3261 20.6891V20.689L45.3289 20.6883L45.3317 20.6876L45.3345 20.6868L45.3373 20.6859L45.3401 20.6849V20.6849L45.3429 20.6839L45.3457 20.683L45.3485 20.682L45.3513 20.6811V20.681L45.3541 20.6801L45.3569 20.6782H45.357L45.3598 20.6773L45.3626 20.6763V20.6763L45.3654 20.6753V20.6752L45.3682 20.6734V20.6733L45.371 20.6714H45.3711L45.3739 20.6695L45.3786 20.6658H45.3787L45.3833 20.6621L45.3852 20.6602L45.3917 20.6546H45.3918L45.3965 20.6509H45.3966L45.3984 20.649V20.6489L45.4003 20.6471V20.647L45.405 20.6423L45.4068 20.6405H45.4069L45.4088 20.6386L45.4107 20.6367L45.4125 20.634L45.4144 20.6321V20.632L45.4162 20.6301L45.4209 20.6227L45.4228 20.6199V20.6198L45.4246 20.617L45.4265 20.6142V20.6141L45.4284 20.6113L45.4293 20.6085L45.4312 20.6057L45.4321 20.6029L45.433 20.6001L45.434 20.5973L45.4349 20.5945L45.4358 20.5917L45.4368 20.5889L45.4377 20.5861L45.4386 20.5833L45.4395 20.5805L45.4402 20.5777L45.441 20.5749L45.4416 20.5721L45.4422 20.5693L45.4427 20.5665L45.4431 20.5637L45.4436 20.5609L45.4438 20.5581L45.4442 20.5553L45.4443 20.5525L45.4445 20.5498L45.4446 20.5469V20.5442V20.5414L45.4445 20.5386L45.4443 20.5358L45.4441 20.533L45.4438 20.5302L45.4436 20.5274L45.4431 20.5246L45.4427 20.5218L45.4422 20.519L45.4416 20.5162L45.4411 20.5134L45.4403 20.5106L45.4396 20.5078L45.4389 20.505L45.438 20.5022L45.437 20.4994L45.4362 20.4966L45.4353 20.4938V20.4937L45.4343 20.4909L45.4334 20.4881V20.488L45.4325 20.4852L45.4316 20.4824L45.4306 20.4796L45.4297 20.4768L45.4278 20.474L45.4259 20.4713L45.4241 20.4684L45.4222 20.4657L45.4204 20.4629V20.4628L45.4185 20.4609V20.4608L45.4166 20.458V20.4579L45.4148 20.4551L45.4129 20.4533L45.411 20.4505L45.4091 20.4486V20.4485L45.4073 20.4466L45.4054 20.4448L45.4036 20.4429V20.4428L45.4017 20.441V20.4408L45.3998 20.439V20.4389L45.398 20.437V20.4369L45.3961 20.4351L45.3942 20.4332V20.4331L45.3924 20.4313V20.4311L45.4928 20.1855H45.4947H45.4966L45.4984 20.1854L45.5003 20.1853L45.5021 20.1852L45.504 20.1849L45.5059 20.1847L45.5078 20.1845L45.5096 20.1841L45.5115 20.1838L45.5134 20.1833L45.5152 20.183L45.5171 20.1826L45.5189 20.1821L45.5208 20.1816L45.5227 20.1809L45.5246 20.1804L45.5264 20.1797L45.5283 20.1791L45.5301 20.1784L45.532 20.1777L45.5339 20.1768L45.5357 20.1761L45.5376 20.1751L45.5395 20.1743L45.5413 20.1734L45.5432 20.1725L45.5451 20.1716L45.5469 20.1707L45.5488 20.1697L45.5507 20.1688L45.5525 20.1679L45.5544 20.1669L45.5563 20.166L45.5581 20.1651L45.56 20.1641L45.5618 20.1632L45.5637 20.1623L45.5656 20.1604L45.5675 20.1595L45.5693 20.1576L45.5712 20.1567L45.5731 20.1548L45.5749 20.153L45.5768 20.1511H45.5769L45.5788 20.1492H45.5788L45.5798 20.1474H45.5799L45.5817 20.1455L45.5827 20.1436H45.5827L45.5837 20.1418H45.5838L45.5847 20.1399L45.5856 20.138L45.5866 20.1362L45.5875 20.1343H45.5876L45.5885 20.1324H45.5886L45.5896 20.1306L45.5905 20.1287H45.5906L45.5915 20.1268H45.5916L45.5926 20.125H45.5926L45.5936 20.1231H45.5937L45.5946 20.1212H45.5947L45.5956 20.1194H45.5957L45.5965 20.1175H45.5967L45.5975 20.1157H45.5976L45.5983 20.1138H45.5984L45.6003 20.1091L45.601 20.1073H45.6011L45.6018 20.1054H45.6019L45.6024 20.1035L45.603 20.1017V20.1016L45.6036 20.0997L45.6041 20.0978H45.6042L45.6046 20.096H45.6047L45.6051 20.0941V20.094L45.6055 20.0922L45.6058 20.0903H45.6059L45.6061 20.0884V20.0883L45.6066 20.0837L45.6067 20.0818L45.6069 20.08V20.0798L45.607 20.078V20.0761H45.6071V20.0743L45.607 20.0724V20.0723L45.6069 20.0704V20.0703L45.6068 20.0685V20.0684L45.6066 20.0665V20.0664L45.6065 20.0646L45.6064 20.0645L45.6063 20.0626H45.6062L45.6059 20.0607L45.6056 20.0589L45.6053 20.057H45.6052L45.6049 20.0551L45.6049 20.0551L45.6044 20.0532V20.0531L45.6039 20.0512L45.6035 20.0494L45.6029 20.0475L45.6022 20.0456V20.0456L45.6017 20.0437L45.6009 20.0418V20.0417L45.6002 20.0399L45.5994 20.038L45.5987 20.0361L45.5979 20.0343L45.597 20.0324V20.0323L45.5962 20.0304L45.5953 20.0286L45.5943 20.0267L45.5934 20.0248L45.5924 20.023L45.5915 20.0211V20.021L45.5906 20.0191V20.0191L45.5897 20.0172V20.0171L45.5887 20.0153V20.0151L45.5878 20.0133V20.0132L45.5869 20.0113L45.5859 20.0095V20.0094L45.585 20.0075L45.5831 20.0056V20.0055L45.5822 20.0037V20.0036L45.5813 20.0017V20.0016L45.5794 19.9998V19.9997L45.5775 19.9978V19.9977L45.5756 19.9958L45.5738 19.994V19.9939L45.5719 19.992V19.9919L45.6865 19.7118L45.6809 19.6105L45.604 19.6767V19.6768L45.478 19.9607H45.4779V19.9608L45.476 19.9609L45.476 19.961L45.4741 19.9612H45.474L45.4721 19.9614V19.9615L45.4703 19.9617V19.9618L45.4684 19.9621V19.9622L45.4665 19.9625L45.4664 19.9626L45.4646 19.9629L45.4645 19.963L45.4626 19.9634H45.4625L45.4606 19.9639L45.4588 19.9643H45.4587L45.4568 19.9648L45.4567 19.9649L45.4549 19.9654V19.9655L45.453 19.9659V19.966L45.4511 19.9667L45.4493 19.9673L45.4474 19.9679L45.4473 19.968L45.4454 19.9686L45.4436 19.9694L45.4417 19.9701L45.4398 19.9709L45.438 19.9717L45.4361 19.9725L45.4343 19.9734L45.4324 19.9742L45.4305 19.9752L45.4286 19.9761L45.4268 19.9769H45.4267L45.4248 19.9779L45.423 19.9788V19.9789L45.4211 19.9797V19.9798L45.4192 19.9807L45.4174 19.9817H45.4173L45.4154 19.9826L45.4135 19.9836L45.4117 19.9845L45.4098 19.9854H45.4097L45.4088 19.9863L45.4069 19.9873L45.406 19.9882H45.4059L45.404 19.9891H45.4039L45.403 19.9901H45.4029L45.402 19.991L45.401 19.9929H45.4009L45.4 19.9947L45.3991 19.9957L45.3982 19.9975H45.398L45.3971 19.9994L45.3962 20.0013L45.3953 20.0031H45.3952L45.3942 20.005L45.3933 20.0069H45.3932L45.3923 20.0087H45.3922L45.3912 20.0106L45.3903 20.0124H45.3902L45.3893 20.0143H45.3892L45.3883 20.0162L45.3873 20.018L45.3864 20.0199H45.3863L45.3855 20.0218L45.3845 20.0236L45.3837 20.0255L45.3828 20.0274L45.3819 20.0292L45.3812 20.0311C45.3647 20.0697 45.3711 20.112 45.3937 20.1438L45.2799 20.4V20.4001H45.2771V20.4002H45.2743V20.4003L45.2715 20.4005V20.4006L45.2687 20.4008V20.4009L45.2659 20.401L45.2631 20.4014L45.2603 20.4018L45.2575 20.4023V20.4023L45.2547 20.4027L45.2519 20.4032L45.2491 20.4038L45.2463 20.4045L45.2435 20.4051L45.2407 20.4058L45.2379 20.4065L45.2351 20.4074L45.2323 20.4082V20.4083L45.2295 20.4091L45.2267 20.41L45.2239 20.4109L45.2211 20.4119L45.2183 20.4128L45.2155 20.4137L45.2127 20.4146L45.2099 20.4156L45.2071 20.4165L45.2043 20.4175L45.2024 20.4184V20.4185L45.2006 20.4194L45.1987 20.4213L45.1959 20.4231L45.1941 20.425L45.1922 20.4269L45.1903 20.4287V20.4288L45.1884 20.4307L45.1866 20.4326L45.1847 20.4344L45.1829 20.4363L45.181 20.4381L45.1791 20.44V20.4401L45.1773 20.442L45.1754 20.4438L45.1735 20.4457V20.4458L45.1717 20.4476L45.1698 20.4495L45.1679 20.4514L45.1661 20.4533L45.1642 20.4551L45.1623 20.457L45.1605 20.4589V20.4589L45.1586 20.4608L45.1567 20.4627L45.1549 20.4645V20.4646L45.1539 20.4665L45.1521 20.4693L45.1502 20.4711L45.1483 20.474L45.1465 20.4768L45.1455 20.4795L45.1437 20.4823L45.1428 20.4851L45.1418 20.4879L45.1409 20.4907L45.1399 20.4935C45.1161 20.5495 45.1281 20.6112 45.1648 20.6546L45.1135 20.7702L44.9772 20.7706H44.9734L44.9697 20.7707H44.966L44.8998 20.7715L44.896 20.7716H44.8923H44.892L44.8883 20.7717L44.8846 20.7718L44.8808 20.7719L44.8771 20.772L44.8269 20.7739L44.8232 20.774L44.8194 20.7742L44.8157 20.7743L44.812 20.7743L44.8082 20.7745H44.8077L44.8049 20.7745L44.8012 20.7747L44.7974 20.7748L44.7937 20.7749L44.79 20.7751L44.7862 20.7753L44.7758 20.7756L44.7721 20.7758L44.7683 20.776L44.7646 20.7762L44.7609 20.7764L44.7571 20.7765L44.7534 20.7767L44.7497 20.7769L44.7459 20.777L44.7422 20.7772C43.1075 20.8566 42.7671 21.6749 42.7671 21.6749L42.4246 22.4553L42.4063 22.7263L42.4016 22.7362L42.4015 22.7363L42.3987 22.7438L42.3997 22.7444C42.2113 23.6259 41.5954 24.227 41.2846 24.5209C41.1763 24.5001 41.0685 24.4817 40.9608 24.4662L40.7291 25.4242L40.7385 25.4261C40.4074 25.3743 40.0764 25.3416 39.7478 25.3297L39.4601 26.0746C38.742 25.8648 38.0053 25.6861 37.2419 25.5394V20.0387H34.261L33.6681 18.983L33.8992 18.8715L33.206 17.7566L33.7605 17.5057L33.8067 17.1989L34.0378 17.1711V16.1397L33.7143 15.9725V15.7216L33.4371 15.5823L33.2985 15.3035L32.9751 15.2199V10.1188L33.2831 10.0724L33.3447 9.94238L33.7143 9.81224V8.84596C33.7143 8.84596 33.2215 8.54857 32.6055 8.56684V7.06159L32.8597 7.05226V6.95492H32.5823V5.24054H32.8365V5.15672H32.5823V3.30352H32.8365V3.16404H32.5823V1.47774H32.744V1.36575H32.5823V0.250781L32.4206 0L32.2589 0.250781V1.36575H32.0972V1.47774H32.2589V3.16404H32.0048V3.30352H32.2589V5.15672H32.0048V5.24054H32.2589V6.95492H31.9817V7.05226L32.2359 7.06159V8.56684C31.6198 8.54857 31.127 8.84596 31.127 8.84596V9.81224L31.4966 9.94238L31.5584 10.0724L31.8662 10.1188V15.2199L31.5428 15.3035L31.4043 15.5823L31.127 15.7216V15.9725L30.8036 16.1397V17.1711L31.0345 17.1989L31.0808 17.5057L31.6353 17.7566L30.9422 18.8715L31.1733 18.983L30.5803 20.0387H27.2109V25.7808C26.5761 25.8801 25.832 26.1071 25.0881 26.3796L24.7381 25.2718C24.6396 25.3481 24.4727 25.4423 24.2614 25.547V25.5469L23.7379 24.8742L22.7284 23.5053L22.3742 22.6304C22.3742 22.6304 21.829 21.1061 20.4953 20.7364C19.794 21.9291 20.4625 23.4035 20.4625 23.4035L20.8251 24.2991L20.973 25.2211L20.9481 25.2423L20.9861 25.3027L20.9918 25.3355L20.524 25.4016L20.4058 25.2618L20.2428 25.3996L20.3216 25.4928L19.3123 26.0469L19.1925 25.9289L18.9945 26.0961L19.007 26.2054L17.6513 27.1524C17.6513 27.1524 16.4216 26.4552 15.1081 27.2869C15.1081 27.2869 15.0783 27.2223 14.9593 27.285C14.9593 27.285 14.9591 27.2404 14.9443 27.223C14.9296 27.2055 14.8983 27.2394 14.8983 27.2394L14.8649 27.2001C14.8649 27.2001 14.8925 27.1619 14.8556 27.1182C14.8187 27.0745 14.736 27.092 14.736 27.092L14.633 26.9911L14.408 26.7255L14.3835 26.7463L14.6084 27.012L14.6909 27.1302C14.6909 27.1302 14.6601 27.2087 14.6974 27.2524C14.7344 27.296 14.7766 27.2752 14.7766 27.2752L14.81 27.3145C14.81 27.3145 14.7713 27.3397 14.7861 27.3572C14.8008 27.3745 14.8448 27.3824 14.8448 27.3824C14.7629 27.489 14.8218 27.5291 14.8218 27.5291C13.7838 28.6864 14.2685 30.0138 14.2685 30.0138L13.1099 31.1936L13.0041 31.1632L12.8063 31.3306L12.9029 31.4684L12.9581 31.5674L12.8793 31.4743L12.7162 31.6122L12.8345 31.7519L12.6877 32.2155L12.6072 32.1439L12.5507 32.2964C12.0185 33.0231 11.467 33.7377 10.9487 34.4743C10.4203 35.2255 9.9961 35.9947 9.4353 36.7556C9.56496 36.8422 9.69508 36.9281 9.82464 37.0148C10.3712 36.2654 10.7929 35.4941 11.3145 34.757C11.8284 34.0308 12.3713 33.3228 12.9003 32.6075L13.1738 32.8424C12.9109 33.1965 12.646 33.5496 12.3828 33.9035C12.1188 34.2579 11.8532 34.6133 11.5967 34.9745C11.3393 35.3368 11.1105 35.7227 10.8765 36.1103C10.6447 36.4942 10.3836 36.8558 10.1231 37.214C10.2431 37.2938 10.3632 37.3736 10.4794 37.4511C10.7956 37.0188 11.0936 36.5682 11.37 36.0961C11.5735 36.0211 11.7767 35.9485 11.9844 35.8816C11.977 35.6812 11.97 35.4803 11.9637 35.2785C12.1518 35.227 12.3393 35.1762 12.5272 35.1271C12.5226 34.8973 12.5216 34.67 12.5179 34.439C12.8452 34.0018 13.1715 33.5635 13.4998 33.1273L13.4239 33.0597C13.4435 33.0759 14.0709 33.5943 14.1372 33.6956L14.1373 33.6957L14.1208 33.6809C13.8021 34.1095 13.4816 34.5361 13.1599 34.9616C12.9487 35.0156 12.7387 35.0707 12.5272 35.1271C12.5276 35.3243 12.5318 35.5223 12.5365 35.7197C12.3518 35.7717 12.1689 35.8259 11.9848 35.8816C11.9957 36.1093 12.0116 36.3422 12.0278 36.5726C11.7615 37.0387 11.4784 37.4866 11.1743 37.9149C11.0624 38.0499 10.9476 38.2315 10.8311 38.4491L10.9803 37.9363C10.9803 37.9363 10.5258 37.5998 9.78903 37.2461L9.56002 41.8663L9.49864 42.0731L9.47365 37.1017C9.15444 36.9627 8.79474 36.8278 8.40557 36.7166C8.81069 36.6993 9.11357 36.625 9.11357 36.625C9.39574 36.243 9.68306 35.8608 9.93968 35.4586C10.2008 35.0496 10.4368 34.6299 10.7109 34.2374C10.9829 33.8475 11.2671 33.4653 11.5492 33.0834C11.8314 32.7015 12.1146 32.3206 12.3957 31.9376C12.3957 31.9376 12.156 29.3391 10.4234 29.6315C9.60945 29.7376 8.9827 30.1233 8.4386 30.4736C7.88787 30.8282 7.42371 31.1474 6.90899 31.1176C6.92933 30.7872 6.58766 30.5621 6.315 30.7835C6.13647 30.648 5.9553 30.5111 5.77266 30.3714C5.80176 30.2466 5.76128 30.1097 5.66175 30.0317C5.55896 29.949 5.4223 29.953 5.31867 30.0261C5.10319 29.8642 4.88594 29.6981 4.66123 29.5271C4.57243 29.5119 4.48225 29.494 4.39205 29.4762C4.43356 29.5632 4.47776 29.6516 4.51955 29.736C4.74557 29.9179 4.96486 30.0943 5.18388 30.2689C5.1725 30.3822 5.21531 30.4984 5.30486 30.568C5.39245 30.6354 5.50104 30.641 5.59525 30.5998C5.78601 30.7516 5.97303 30.9011 6.15838 31.0502C6.09225 31.4017 6.41883 31.6586 6.70081 31.4826C6.70175 31.4835 6.70266 31.4845 6.70266 31.4845C6.88139 32.0071 6.74157 32.5725 6.57852 33.2172C6.41864 33.8494 6.23953 34.5652 6.36835 35.3927C6.45417 35.9406 6.73326 36.2713 7.08241 36.4655C6.77515 36.4379 6.45873 36.4318 6.13692 36.4539L9.32673 42.6671L9.31927 42.6953L5.69992 36.5015C5.38921 36.548 5.07513 36.6226 4.76041 36.7313C4.51816 36.8153 4.28569 36.9074 4.06294 37.0059L9.29519 42.7807L9.28961 42.7993L3.63825 37.2071C3.03398 37.5128 2.5104 37.8622 2.06546 38.213L9.27216 42.8615L9.26749 42.8764L1.66937 38.5423C0.964549 39.1616 0.508219 39.7431 0.290783 40.0479L9.25257 42.93L9.24885 42.9438L0.149474 40.5557C0.170836 40.9378 0.246499 41.6712 0.508896 42.5651L9.23401 42.9971L9.23029 43.0118L0.667171 43.0546C0.855223 43.5888 1.11045 44.1633 1.45698 44.7438L9.21349 43.0728L9.20882 43.0909L1.708 45.1402C1.84046 45.3383 1.98421 45.5362 2.14027 45.7325C2.35015 45.9965 2.57847 46.2306 2.81923 46.4386L9.18625 43.1731L9.17879 43.1999L3.1626 46.7118C3.25093 46.7766 3.3405 46.8381 3.43098 46.8969L3.42025 46.9355C3.34161 46.9317 3.26204 46.9289 3.18238 46.9252C2.95935 47.6764 2.70283 48.5408 2.4049 49.5435C2.05398 50.7245 1.63327 52.1353 1.12349 53.8487C1.25819 53.8422 1.39122 53.8367 1.52302 53.8315C1.50138 53.9128 1.47843 53.9939 1.45539 54.0755L3.71109 56.1396L2.55637 56.768L0.272792 55.6886C-0.074302 56.4634 -0.104247 57.5432 0.264395 58.6258C0.632944 59.7082 1.31557 60.5457 2.06358 60.9482L3.24256 58.8641L4.79565 58.6044L3.81184 55.9654L4.08404 55.8556L5.08997 58.5551L6.34065 58.3459L5.22279 55.2623L5.49516 55.1524L5.86025 56.1586L7.57064 55.5769L7.92716 53.7365L8.15999 53.643L8.12854 53.8056L7.78517 55.5772L8.79708 55.8116L8.13861 56.6137C8.59569 57.0109 9.04791 57.4164 9.50172 57.8173L11.3121 57.5145L11.314 57.5191L11.2322 57.5658C11.2322 57.5658 11.3573 57.9752 11.043 58.1855L11.0965 58.2791L9.01852 59.6094L9.06395 59.6392L9.01089 59.6143L8.33375 60.0479L8.32407 60.2043L8.67572 60.3835L9.16322 60.1054L9.18719 59.8549L9.42776 60.2763L9.19977 60.1695L8.7123 60.4475L8.68785 60.8413L9.03953 61.0205L9.52699 60.7424L9.55088 60.492L9.79359 60.9168L9.56571 60.8103L9.07822 61.0883L9.05371 61.4819L9.40536 61.6611L9.89285 61.383L9.91662 61.1325L10.1594 61.5576L9.93156 61.4509L9.44399 61.729L9.41965 62.1227L9.77113 62.3016L10.2586 62.0236L10.2825 61.7732L10.5252 62.1981L10.2973 62.0914L9.80981 62.3695L9.7853 62.7632L10.137 62.9424L10.6245 62.6644L10.6483 62.4138L10.8911 62.8388L10.6632 62.7322L10.1758 63.0103L10.1511 63.4038L10.4328 63.5474H10.4329L10.9942 63.2641L11.0142 63.0544L11.1027 63.2095L13.2833 62.1087L13.3367 62.2021C13.6778 62.0386 13.9668 62.3546 13.9668 62.3546L14.0487 62.3079C14.0487 62.3079 14.0821 62.3664 14.2827 62.5003C14.4831 62.634 14.6404 62.42 14.6404 62.42L14.8031 62.6417L13.6675 64.1676L19.9584 68.8452L19.7533 69.1207L20.478 69.6595L20.0311 70.2601L20.7998 70.8317L20.0662 71.8172L20.9688 72.4883L20.0848 73.5327L22.2156 74.855L23.2682 75.3042C23.2654 75.3345 23.2636 75.3643 23.2617 75.3943L23.4803 75.302L23.5815 74.7502L23.4053 74.5706L23.887 74.6589L23.6583 74.7643L23.557 75.3161L23.8427 75.5885L24.2064 75.435L24.3076 74.8833L24.1314 74.7037L24.6129 74.7918L24.3844 74.8974L24.2831 75.4492L24.5685 75.7216L24.9322 75.5681L25.0335 75.0163L24.8571 74.8367L25.3388 74.925L25.1102 75.0304L25.0089 75.5822L25.2946 75.8546L25.6581 75.7011L25.7593 75.1494L25.5831 74.9697L26.0647 75.058L25.8361 75.1634L25.7349 75.7152L26.0204 75.9876L26.3842 75.8343L26.4855 75.2824L26.3091 75.1028L26.7865 75.1903L26.5579 75.2957L26.4566 75.8475L26.7423 76.1198L27.106 75.9665L27.2073 75.4147L27.0309 75.2351L27.5125 75.3232L27.2839 75.4287L27.1827 75.9807L27.4682 76.253L27.8319 76.0996L27.9331 75.5477L27.7568 75.3681L28.2385 75.4564L28.0098 75.5619L27.9086 76.1136L28.1943 76.386L28.5577 76.2326L28.6589 75.6808L28.4828 75.5011L28.9642 75.5893L28.7357 75.6948L28.6345 76.2467L28.9201 76.519L29.2837 76.3657L29.385 75.8139L29.2086 75.6342L29.6902 75.7224L29.4618 75.8279L29.3605 76.3797L29.6459 76.6521L30.0096 76.4987L30.1109 75.9469L29.9345 75.7672L30.4119 75.8547L30.1833 75.9601L30.0822 76.512L30.3677 76.7844L30.7311 76.631L30.8324 76.0791L30.6562 75.8995L31.1378 75.9877L30.9092 76.0932L30.8081 76.6449L31.0936 76.9174L31.4573 76.764L31.5586 76.2123L31.3822 76.0325L31.8638 76.1208L31.6353 76.2262L31.534 76.7781L31.8194 77.0504L32.1832 76.8969L32.2843 76.3452L32.1081 76.1656L32.5898 76.2538L32.3612 76.3593L32.2599 76.9111L32.5455 77.1835L32.9089 77.0301L33.0102 76.4782L32.834 76.2986L33.3156 76.3869L33.0871 76.4923L32.9858 77.0441L33.2036 77.2519C33.3602 76.7036 33.4741 76.1771 33.5564 75.6531L33.0092 75.5528L33.1832 74.6039L32.8254 74.0857L33.2805 73.7719L32.9665 73.317L33.4849 72.9594L33.6516 72.0511L33.7662 72.0721C33.7663 72.4625 33.7635 72.8363 33.7553 73.1988L33.7557 73.1869L33.7925 73.821C34.4025 73.7326 35.0125 73.6477 35.6223 73.564C35.8388 73.6901 36.0552 73.8145 36.2739 73.9388C36.4346 73.7802 36.5931 73.6182 36.7504 73.4562C36.944 73.5625 37.1375 73.6657 37.3331 73.7686C37.5102 73.5772 37.6873 73.3777 37.8623 73.1797C38.4602 73.0193 39.057 72.8868 39.6549 72.787L39.5446 72.2468L39.867 72.1697L40.2786 73.2563L41.7939 73.1217L42.9801 72.2336L42.6529 71.3702L43.0474 71.0097L44.0479 70.6309C44.3711 71.0728 44.5981 71.3164 44.998 71.8221C45.4726 71.4838 46.1385 70.9167 46.6658 70.2765C46.7284 70.3471 46.787 70.4177 46.8497 70.4884C46.9083 70.4199 46.9668 70.3537 47.0254 70.2853C47.1023 70.3757 47.179 70.4619 47.2598 70.5502C47.2598 70.5455 47.2617 70.5437 47.2617 70.5409C47.3567 70.4769 47.4495 70.4106 47.5425 70.3444C47.5443 70.3491 47.5462 70.3537 47.5546 70.3577C48.092 69.7329 48.6698 69.0972 49.2719 68.4571C49.2682 68.4552 49.2635 68.4506 49.2618 68.4506C49.3284 68.3378 49.4012 68.2275 49.4739 68.1172C49.3992 68.0443 49.3306 67.9714 49.2598 67.8965C49.3306 67.8258 49.4012 67.7529 49.4719 67.6824C49.4173 67.625 49.3628 67.5653 49.3083 67.5101C49.4396 67.3755 49.5668 67.2452 49.6982 67.1127C50.4052 67.8103 51.1663 68.5525 52.0398 69.2584C52.9749 70.0142 54.0399 70.7949 55.1874 71.6734C55.2297 71.6094 55.2723 71.5453 55.3127 71.4836C55.4116 71.5564 55.5107 71.6337 55.6076 71.7088C56.646 70.2186 57.7802 68.7424 58.8665 67.221C59.9443 65.7111 60.8746 64.1326 61.6929 62.5434C61.5858 62.4947 61.4808 62.4462 61.3776 62.3977C61.408 62.3291 61.4383 62.2629 61.4665 62.1968C60.2463 61.6228 59.0967 61.0665 58.02 60.5412C57.0017 60.0445 56.044 59.5788 55.1429 59.1417C55.2036 58.9916 55.2602 58.837 55.3207 58.6869C55.3935 58.7222 55.4641 58.7509 55.535 58.7863C55.5652 58.7001 55.5995 58.6163 55.6298 58.5346C55.7208 58.5744 55.8117 58.6185 55.9026 58.6581C55.9632 58.5633 56.0279 58.4705 56.0864 58.3757C56.0902 58.3775 56.0965 58.3803 56.1006 58.3822C56.3552 57.6317 56.5916 56.8878 56.8199 56.1482C56.8143 56.1464 56.8097 56.1436 56.8078 56.1436C56.8115 56.0266 56.8218 55.9095 56.8259 55.7991C56.8277 55.7945 56.8277 55.7926 56.8277 55.7898C56.7369 55.7568 56.644 55.7214 56.5531 55.6883C56.5773 55.6046 56.6015 55.5228 56.6259 55.4389C56.5512 55.4103 56.4823 55.3859 56.4076 55.3595C56.6326 54.601 56.8593 53.8487 57.0984 53.0964L57.4261 53.1718C57.512 52.8275 57.5891 52.48 57.6609 52.1334C58.5082 52.2044 59.3552 52.24 60.2025 52.3059C60.2189 52.2383 60.2379 52.1698 60.2555 52.1013C60.5397 52.1301 60.8238 52.1596 61.1091 52.1909C61.7428 52.2645 62.4297 52.0057 62.9789 51.484C62.9761 51.4967 62.9742 51.5094 62.9714 51.5212C63.047 51.4301 63.1203 51.3377 63.1922 51.2456C63.1931 51.2428 63.195 51.241 63.1959 51.2401C63.2034 51.2307 63.2111 51.2215 63.2186 51.2122C63.2186 51.2113 63.2186 51.2103 63.2186 51.2094C63.2755 51.1332 63.3298 51.0555 63.3778 50.9752C63.6075 50.6513 64.0205 50.0848 64.3841 49.8649C64.6921 49.8836 65.0015 49.8979 65.312 49.9064C65.312 49.8286 65.312 49.7508 65.3148 49.6731C65.0041 49.6647 64.6936 49.6501 64.3855 49.6324C64.0344 49.3594 63.6393 48.7261 63.4234 48.3633C63.3767 48.2711 63.3275 48.1849 63.2757 48.1038C63.2757 48.1038 63.2757 48.103 63.2757 48.1019C63.2692 48.0926 63.2643 48.0842 63.2592 48.0757C63.2583 48.0729 63.2564 48.071 63.2555 48.0682C63.1861 47.9642 63.1166 47.8585 63.0485 47.7536C63.0494 47.7646 63.0513 47.7748 63.0522 47.7848C62.5497 47.1617 61.8855 46.756 61.2441 46.6815C60.9551 46.6503 60.6671 46.6198 60.3793 46.5902C60.3692 46.5217 60.3579 46.4524 60.3477 46.3839C59.4904 46.3112 58.6306 46.2724 57.7683 46.2798C57.7437 46.0726 57.7192 45.8656 57.6954 45.6593L59.424 45.5022C60.3233 45.4202 61.2446 45.3363 62.1879 45.2507C62.1916 45.2205 62.1953 45.1905 62.1995 45.1603C62.278 45.1538 62.3573 45.1456 62.4366 45.1387C62.5574 44.3644 62.6962 43.4734 62.8575 42.4401C63.0476 41.223 63.276 39.7685 63.5525 38.0025C63.4198 38.0271 63.2887 38.0501 63.1588 38.073C63.1694 37.9892 63.1812 37.906 63.1932 37.822L61.2306 36.5807L61.8052 36.2304L61.806 36.174C61.8088 35.9884 61.7936 35.8008 61.7596 35.6142C61.7273 35.436 61.6765 35.257 61.6063 35.0795C61.5389 34.9093 61.4572 34.7493 61.3637 34.601C61.2674 34.4486 61.1578 34.3072 61.0372 34.1781L61 34.1384L59.4802 34.4697L60.6913 37.2894L60.5305 37.3704L59.3098 34.5278L58.017 34.7852C58.463 35.8276 58.8443 36.8931 59.2906 37.9359L59.0991 38.0346C58.9419 37.667 58.7975 37.3087 58.6499 36.9358L56.9461 37.6097L56.68 39.4651L56.4521 39.5695L56.4833 39.3966ZM23.2543 75.6314C23.2419 75.8665 23.233 76.108 23.2275 76.3596L23.297 76.3302L23.3983 75.7782L23.2543 75.6314ZM23.2252 76.4754C23.2224 76.5906 23.2215 76.7077 23.2215 76.8251L32.7611 78.5735C32.804 78.463 32.8451 78.3538 32.8846 78.2457L32.4642 78.1687L32.726 78.0582L32.8273 77.5063L32.5447 77.2181L32.1781 77.3873L32.0769 77.9393L32.2825 78.1354L31.7382 78.0356L32.0002 77.9251L32.1014 77.3733L31.8187 77.0851L31.4524 77.2543L31.351 77.8062L31.5566 78.0022L31.0124 77.9026L31.2744 77.7922L31.3756 77.2402L31.0928 76.952L30.7262 77.1213L30.625 77.6731L30.8307 77.8693L30.2864 77.7695L30.5482 77.659L30.6494 77.1072L30.3669 76.8191L30.0003 76.9882L29.8991 77.5401L30.1048 77.7361L29.5647 77.6372L29.8267 77.5268L29.928 76.975L29.6451 76.6867L29.2788 76.856L29.1776 77.4079L29.3831 77.6039L28.8388 77.5043L29.1008 77.3938L29.2021 76.8419L28.9192 76.5537L28.5527 76.723L28.4514 77.2747L28.6571 77.4709L28.1129 77.3711L28.3748 77.2607L28.4759 76.7088L28.1935 76.4208L27.8269 76.5899L27.7256 77.1418L27.9313 77.3378L27.387 77.2381L27.6489 77.1276L27.75 76.5759L27.4674 76.2877L27.101 76.4569L26.9997 77.0086L27.2053 77.2049L26.6611 77.1051L26.923 76.9946L27.0243 76.4428L26.7415 76.1546L26.3749 76.3238L26.2737 76.8757L26.4794 77.0717L25.9393 76.9728L26.2011 76.8624L26.3025 76.3105L26.0197 76.0223L25.653 76.1915L25.5519 76.7433L25.7575 76.9396L25.2133 76.8397L25.4751 76.7293L25.5764 76.1774L25.2938 75.8894L24.9272 76.0585L24.826 76.6103L25.0317 76.8064L24.4873 76.7066L24.7492 76.5963L24.8505 76.0444L24.5677 75.7562L24.2014 75.9255L24.1002 76.4773L24.3056 76.6735L23.7615 76.5737L24.0234 76.4632L24.1246 75.9114L23.842 75.6232L23.4753 75.7924L23.374 76.3442L23.5798 76.5403L23.2252 76.4754ZM23.2206 76.9894C23.2204 77.2444 23.2234 77.5113 23.228 77.7883L32.3867 79.4667C32.4998 79.2132 32.604 78.9669 32.6999 78.7267L23.2206 76.9894ZM23.2319 77.9531L23.2474 78.5151L32.0769 80.1334C32.1616 79.9583 32.2421 79.7866 32.3188 79.6184L23.2319 77.9531ZM23.253 78.6804C23.2614 78.9188 23.2709 79.165 23.282 79.4199L31.6631 80.9558C31.7832 80.7258 31.8965 80.5021 32.0034 80.2841L23.253 78.6804ZM32.9097 78.1746C33.0044 77.9103 33.0891 77.6525 33.1644 77.4L32.9035 77.5204L32.8023 78.0723L32.9097 78.1746ZM33.5879 75.4826C33.6008 75.3936 33.6129 75.3048 33.6241 75.2158C33.6129 75.3048 33.6008 75.3936 33.5879 75.4826ZM33.6435 75.0555C33.664 74.8772 33.6815 74.6984 33.6963 74.5183C33.6815 74.6985 33.6641 74.8773 33.6435 75.0555ZM33.7358 73.9182C33.7453 73.7342 33.7525 73.5482 33.7579 73.3592C33.7523 73.5482 33.7453 73.7343 33.7358 73.9182ZM57.8174 34.8259L55.1799 35.3992L56.4985 36.4524L58.2026 35.7783C58.0756 35.458 57.9527 35.1421 57.8174 34.8259ZM58.2661 35.9802L56.5474 36.66L56.0882 37.2789L56.8465 37.416L58.586 36.7278L58.2661 35.9802ZM55.9257 36.6063L55.1354 37.6518L54.4193 38.7119L53.1712 38.4289L53.8874 37.3687L54.6775 36.3232L55.9257 36.6063ZM54.4193 38.712L55.7114 38.9336L56.4275 37.8733L55.1354 37.6518L53.8874 37.3687L52.5954 37.1471L51.8792 38.2072L53.1712 38.4289L52.381 39.4744L53.6291 39.7573L54.4193 38.712ZM50.6787 36.2596L53.2691 41.5459L52.8641 41.7439L50.2736 36.4576L50.6787 36.2596ZM35.7005 20.5691H36.6607V26.8676H35.7005V20.5691ZM35.2922 20.5691V23.6041C35.2922 23.6041 34.9873 21.1538 32.3547 20.5691H35.2922ZM29.1751 20.5691V23.6041C29.1751 23.6041 29.48 21.1538 32.1127 20.5691H29.1751ZM27.8061 20.5691H28.7665V26.8676H27.8061V20.5691ZM29.7257 24.024C29.7257 24.024 29.7249 24.411 29.7239 24.9788H34.7433C34.7415 24.411 34.7415 24.024 34.7415 24.024C34.7415 24.024 34.8613 22.1852 32.2338 21.1947C29.607 22.1852 29.7262 24.024 29.7262 24.024H29.7257ZM17.1953 35.6876L18.4874 34.3216L17.1046 33.0395C17.1046 33.0395 16.6272 32.7953 15.9317 33.2007C15.5698 33.919 15.8431 34.3802 15.8431 34.3802L17.1953 35.6876ZM19.3871 33.8314L20.8722 32.6819L19.4962 30.9059C19.4962 30.9059 19.0541 30.5836 18.2888 30.8811C17.8094 31.5471 18.0112 32.0553 18.0112 32.0553L19.3871 33.8314ZM12.3258 59.0752C12.8924 59.519 13.0612 59.3582 13.0612 59.3582C13.3028 59.202 13.5445 59.0458 13.78 58.8937C13.5554 58.5534 13.3334 58.2118 13.111 57.8694C12.8682 58.0134 12.622 58.1602 12.3704 58.3086C12.3704 58.3086 12.1259 58.4061 12.3258 59.0752ZM11.7399 60.2128C12.0057 60.0407 12.2695 59.8707 12.5245 59.7058C12.2865 59.351 12.0511 58.9948 11.8168 58.6382C11.5516 58.7952 11.2817 58.9558 11.0069 59.1196C11.0069 59.1196 10.7417 59.2272 10.9443 59.9317C11.5524 60.388 11.7399 60.2128 11.7399 60.2128ZM13.443 60.9333C13.1586 60.602 12.9037 60.2553 12.659 59.9036C12.4036 60.0707 12.1451 60.2414 11.8799 60.4153C11.8799 60.4153 11.621 60.5326 11.8555 61.2333C12.53 61.6446 12.6999 61.4664 12.6999 61.4664C12.9531 61.2846 13.2006 61.1077 13.443 60.9333ZM13.9065 59.0848C13.6743 59.2374 13.4345 59.3938 13.1915 59.5538C13.1915 59.5538 12.9554 59.6588 13.1799 60.3254C13.7982 60.7336 13.9494 60.5697 13.9494 60.5697C14.1804 60.405 14.4077 60.2422 14.6301 60.0827C14.3743 59.7575 14.1363 59.4226 13.9065 59.0848ZM53.1133 47.6723L53.1068 50.9375L57.0158 50.9459C57.0158 50.9459 57.9305 50.6834 58.3392 49.3154C57.9362 47.9467 57.0227 47.6806 57.0227 47.6806L53.1133 47.6723ZM62.0703 36.2349L63.0571 36.6435L63.0579 36.6407C63.1721 36.3189 63.2296 35.9761 63.2234 35.6289C63.2178 35.295 63.152 34.9555 63.0212 34.6253C62.8869 34.286 62.6952 33.9868 62.4621 33.7345C62.22 33.4723 61.9328 33.2602 61.6184 33.1058L61.1925 33.9525L61.2123 33.9732C61.3474 34.1155 61.4709 34.2726 61.5796 34.4431C61.6858 34.6096 61.7775 34.7877 61.852 34.9758C61.9285 35.1689 61.9845 35.3704 62.0208 35.5736C62.0584 35.7838 62.0748 35.9947 62.071 36.1989L62.0703 36.2349ZM63.294 36.7415L64.2373 37.1322C64.546 36.3412 64.5231 35.2613 64.1021 34.1981C63.681 33.1349 62.9583 32.3319 62.1915 31.9665L61.7332 32.8778C62.0754 33.0461 62.3876 33.2769 62.6506 33.5617C62.9048 33.837 63.1135 34.1629 63.2596 34.5316C63.4017 34.8905 63.4728 35.2611 63.4791 35.6272C63.4857 36.0068 63.4227 36.3807 63.2978 36.7309L63.294 36.7415ZM7.67438 55.7556C7.09614 55.9534 6.51713 56.1498 5.93833 56.3461L6.21537 57.1108C6.78914 56.9163 7.36301 56.7214 7.93622 56.5255L8.42527 55.9296L7.67438 55.7556ZM6.28702 57.3088L6.64092 58.286L9.24053 57.8511L7.9749 56.7348L6.28702 57.3088ZM8.15774 60.1543L5.76204 61.688L5.85549 61.8518L5.43407 62.0921L5.59423 62.3728L5.407 62.4796L5.78125 63.1348C5.78125 63.1348 5.75616 63.227 5.81296 63.3806L5.67613 63.4587C5.03464 62.7009 3.92469 62.4827 3.03088 62.9927C2.02243 63.5679 1.67133 64.8513 2.24696 65.8595C2.8225 66.8673 4.10688 67.2181 5.11533 66.6428C6.00904 66.133 6.3856 65.0668 6.05903 64.1291L6.19587 64.0512C6.29941 64.1783 6.3913 64.2034 6.3913 64.2034L6.76543 64.8585L6.95286 64.7517L7.11318 65.0327L7.53472 64.7923L7.62809 64.956L9.39445 64.0645L9.33877 63.9671L9.46263 64.0301L9.4589 64.032L10.0894 63.7137L10.1179 63.4161L9.75237 63.2452L9.26487 63.5233L9.24725 63.8066L8.973 63.3264L9.22616 63.4555L9.71374 63.1774L9.752 62.7756L9.38643 62.6043L8.89893 62.8824L8.88131 63.166L8.60718 62.6858L8.86025 62.8147L9.3478 62.5366L9.38623 62.135L9.02069 61.9637L8.53311 62.2419L8.51557 62.5255L8.24124 62.0451L8.49448 62.1742L8.98197 61.896L9.02032 61.4941L8.65483 61.3231L8.16734 61.6012L8.14972 61.8847L7.87547 61.4044L8.12874 61.5336L8.6162 61.2554L8.65455 60.8536L8.28889 60.6824L7.80142 60.9604L7.78389 61.2441L7.51169 60.7674L7.76493 60.8965L8.25242 60.6184L8.29085 60.2166L8.15774 60.1543ZM13.6424 64.4816C13.6424 64.4816 12.4435 65.2609 12.4146 66.4927C12.3861 67.7242 13.0492 68.5615 13.0492 68.5615C13.0492 68.5615 14.0425 68.9557 15.2143 68.5743C15.5241 68.4734 15.7799 68.3033 15.9889 68.1077L16.1961 68.2617L15.7491 68.8623L16.0436 69.0814L15.2503 70.1474L15.683 70.8677L16.4886 71.0681L17.8453 69.2452L18.2785 69.5674L17.2212 70.988L17.7126 71.3535L19.5552 68.8779L19.0636 68.5125L16.7884 66.8207L13.6424 64.4816ZM31.5288 81.6872L23.1478 80.1512L23.2562 79.5604L31.6373 81.0963L31.5288 81.6872ZM23.4498 73.7889L23.4497 73.789V73.7897L23.4498 73.789L23.9952 73.889L24.1692 72.9402L24.6877 72.5825L24.3736 72.1278L24.8287 71.8139L24.4708 71.2957L24.6375 70.3874L24.4176 70.3471C23.9412 71.621 23.6336 72.6839 23.4498 73.7889ZM25.3747 67.9882L24.4591 67.3074L25.28 67.9178L23.7536 69.9688C23.7536 69.9688 23.2579 70.3451 22.381 70.024C21.8205 69.2764 22.0386 68.6937 22.0386 68.6937L23.5651 66.6427L21.6749 65.2373L23.0087 66.229L21.4821 68.2798C21.4821 68.2798 20.9864 68.6562 20.1098 68.3352C19.5493 67.5877 19.7673 67.0048 19.7673 67.0048L21.2938 64.9538L20.7378 64.5404L19.2113 66.5915C19.2113 66.5915 18.7151 66.9673 17.8382 66.6463C17.2784 65.8992 17.4959 65.316 17.4959 65.316L19.0223 63.265L18.4665 62.8517L16.9401 64.9027C16.9401 64.9027 16.4444 65.279 15.5669 64.9575C15.007 64.2104 15.225 63.6275 15.225 63.6275L16.7515 61.5766L16.5553 61.4305C16.7115 61.3078 16.832 61.2173 16.8841 61.1877C16.9375 61.1571 17.513 61.3809 17.6045 61.511L15.5036 58.4538L14.8056 56.9206L15.4617 56.8108L13.856 53.5147L14.0237 53.5091C14.0073 53.5097 13.1361 51.2161 13.1361 51.2161C12.3184 51.2254 11.7724 51.2047 10.9131 51.2142C10.0323 51.2244 9.13001 51.235 8.20281 51.2459C6.2693 51.2233 5.79842 49.5651 5.79842 49.5651C5.79842 49.5651 6.29036 48.2435 7.83974 48.2566C8.58831 48.2763 9.3214 48.2964 10.039 48.3162C10.653 48.3332 11.7187 48.3096 12.4307 48.3154C12.5363 48.3162 12.634 48.3182 12.7214 48.3201C12.663 48.1948 12.6735 47.1563 12.6735 47.1563L12.5199 47.1568L12.5245 47.1074L10.3279 46.7444C10.3279 46.7444 9.83427 46.5089 9.73241 45.6949C10.0912 44.9565 10.6344 44.8922 10.6344 44.8922L12.7868 45.248C12.8454 44.9275 12.9084 44.6209 12.9749 44.3284L10.882 43.8036C10.882 43.8036 10.4092 43.5284 10.3744 42.7088C10.7923 42.0022 11.339 41.9827 11.339 41.9827L13.4756 42.5185C13.534 42.3417 13.5926 42.1734 13.6509 42.0137L11.7364 41.1827C11.7364 41.1827 11.315 40.8341 11.4144 40.0199C11.9421 39.3908 12.4847 39.4607 12.4847 39.4607L14.4041 40.2939C14.4489 40.2096 14.4894 40.1365 14.5246 40.0746L14.5385 40.0839C14.5862 39.9959 14.6326 39.9079 14.6784 39.8201L14.6786 39.8199C14.9959 39.2116 15.2807 38.6113 15.685 38.0751C16.1007 37.524 16.508 36.9331 16.9259 36.3759L22.5699 31.6219L21.5684 32.1976L20.4479 30.2503C20.4479 30.2503 20.3176 29.7193 20.8834 29.125C21.6823 28.9348 22.076 29.3144 22.076 29.3144L23.1548 31.1893C23.2378 31.1511 23.3209 31.1166 23.4041 31.079L22.4387 29.1044C22.4387 29.1044 22.3444 28.5658 22.949 28.0109C23.7589 27.8749 24.1262 28.2801 24.1262 28.2801L25.1108 30.2939C25.2049 30.2554 25.2992 30.2179 25.3936 30.181L25.3908 30.1726L25.2832 30.2104L24.537 28.0916C24.537 28.0916 24.5058 27.5457 25.1705 27.0646C25.9908 27.0232 26.3087 27.4682 26.3087 27.4682L27.0549 29.587L26.6631 29.725L26.6649 29.7324C26.9489 29.6428 27.2341 29.5596 27.5204 29.4829L27.5185 29.4552L27.6705 29.4149L27.6516 29.4196V27.2371H28.9192V29.1307L28.8755 29.1406C29.3391 29.0497 29.8082 28.9745 30.2824 28.9156C30.0939 28.9387 29.9063 28.9646 29.7196 28.9931C29.7177 28.0978 29.7198 26.5377 29.7214 25.4034H34.7428C34.7447 26.4789 34.7465 27.9374 34.7456 28.8488C35.0139 28.874 35.2806 28.9045 35.5458 28.9399V27.2371H36.8134V29.148L36.7681 29.1415C36.8878 29.165 37.0072 29.1895 37.1261 29.2151L37.1255 29.2511C37.3104 29.291 37.4948 29.3335 37.6785 29.3784L37.6517 29.3709L38.1349 27.7274C38.1349 27.7274 38.3591 27.3757 38.9851 27.3741C39.511 27.7141 39.5093 28.1311 39.5093 28.1311L39.0306 29.7589C39.1072 29.7833 39.1836 29.8081 39.26 29.8335L39.943 30.0776L39.243 29.8181L39.6195 28.8035C39.6195 28.8035 39.776 28.5917 40.1705 28.6182C40.4871 28.8554 40.4677 29.118 40.4677 29.118L40.0918 30.1308L40.1502 30.1516C40.2797 30.2012 40.4087 30.2523 40.5373 30.3046C40.8996 30.4521 41.258 30.6101 41.6122 30.7787L42.0264 29.8382C42.0264 29.8382 42.1952 29.6362 42.5874 29.686C42.8893 29.9415 42.8544 30.2026 42.8544 30.2026L42.4402 31.1433L42.4288 31.19L42.5068 31.2316L43.315 29.7725C43.315 29.7725 43.6105 29.4782 44.2217 29.6132C44.6609 30.0595 44.5682 30.4661 44.5682 30.4661L43.7436 31.9544C43.7983 31.9888 43.8527 32.0237 43.9071 32.0587C44.1218 32.1974 44.3343 32.3404 44.5444 32.4878L45.9352 30.7558C45.9352 30.7558 46.3825 30.4411 47.1423 30.7512C47.6103 31.4256 47.3999 31.9304 47.3999 31.9304L46.0314 33.6349C46.1002 33.6933 46.1686 33.7522 46.2366 33.8118L47.7277 32.1915C47.7277 32.1915 48.1952 31.9077 48.9323 32.2684C49.3539 32.9729 49.1101 33.4624 49.1101 33.4624L47.5922 35.112C47.7392 35.2666 47.8842 35.424 48.0271 35.5841L47.7324 35.2421L49.4351 33.7761C49.4351 33.7761 49.9324 33.5484 50.6227 33.992C50.9599 34.7405 50.6609 35.1985 50.6609 35.1985L48.9582 36.6645L48.5473 36.1878C48.7298 36.4087 48.9085 36.6342 49.0832 36.8646L50.8269 40.0396L50.8241 40.0401C50.825 40.0399 50.8306 40.0494 50.8411 40.0656L52.0024 42.1804L52.0071 42.1878L52.0099 42.1925L52.0108 42.1944C52.82 42.0762 53.3638 42.0239 54.2141 41.8996C55.0856 41.772 55.9785 41.641 56.8958 41.5065C58.8152 41.2712 59.5032 42.8515 59.5032 42.8515C59.5032 42.8515 59.1922 44.2268 57.6549 44.4208C56.9105 44.5009 56.1811 44.579 55.4674 44.6551C54.7661 44.7298 53.4818 44.9372 52.8085 45.0089C52.8637 45.0952 52.9484 45.683 52.9887 45.9819C52.8911 45.9884 52.7941 45.9932 52.698 45.9977C52.7898 47.0347 52.9699 48.0682 52.9648 49.1113C52.9602 50.1474 52.7703 51.1693 52.6959 52.195C52.8576 52.2089 53.0196 52.2258 53.1815 52.2458C53.8052 52.4812 55.647 53.1589 55.647 53.1589C55.647 53.1589 56.0368 53.3708 56.0612 53.9314C55.7298 54.3796 55.2873 54.3288 55.2873 54.3288C55.2873 54.3288 52.7296 53.2979 52.6306 53.2824C52.6306 53.2805 52.6306 53.2806 52.6325 53.2778C52.6306 53.2778 52.6306 53.2759 52.6306 53.2759C52.5558 53.521 52.4811 53.7638 52.4064 54.0066C52.4082 54.0047 52.4101 54 52.4129 53.9982C52.4997 54.0444 55.0594 55.0753 55.0594 55.0753C55.0594 55.0753 55.4474 55.3138 55.4715 55.89C55.1342 56.327 54.6938 56.2563 54.6938 56.2563C54.6938 56.2563 52.1604 55.135 52.0634 55.1173C52.0634 55.1155 52.0634 55.1127 52.0634 55.1108C51.9866 55.3515 51.9057 55.5942 51.825 55.8392C51.825 55.8374 51.8268 55.8392 51.8268 55.8392C51.8287 55.8346 51.8287 55.8299 51.8305 55.8299C51.9153 55.8785 54.4488 57.0088 54.4488 57.0088C54.4488 57.0088 54.8246 57.267 54.8246 57.8564C54.459 58.2913 54.0206 58.1964 54.0206 58.1964C54.0206 58.1964 51.5255 56.9712 51.4305 56.9447C51.4324 56.94 51.4324 56.9401 51.4343 56.9382C51.4324 56.9363 51.4305 56.9363 51.4305 56.9363C51.3881 57.0466 51.3457 57.1549 51.3053 57.2651V57.2632C51.0284 57.9299 50.7335 58.5944 50.4082 59.2455C50.9679 59.5832 52.6508 60.5185 53.2649 60.8767C53.9033 61.2492 54.5741 61.6208 55.2772 62.0181C56.742 62.9276 55.8429 65.188 55.8429 65.188C55.8429 65.188 53.9175 66.8657 52.5518 65.9209C51.9416 65.4309 51.3608 64.9486 50.8103 64.4772C50.2779 64.0215 48.7273 62.9166 48.2465 62.4729C47.7394 63.0424 47.204 63.5943 46.6463 64.1262C46.6463 64.1243 46.6463 64.1243 46.6463 64.1243C46.5534 64.2061 46.4625 64.2922 46.3676 64.3761C46.3676 64.3779 46.3695 64.3779 46.3695 64.3779C46.3713 64.3761 46.3713 64.3733 46.3732 64.3733C46.4217 64.4617 48.4562 66.3909 48.4562 66.3909C48.4562 66.3909 48.6764 66.7905 48.3593 67.3666C47.7874 67.636 47.4157 67.3556 47.4157 67.3556C47.4157 67.3556 45.454 65.2564 45.3833 65.179C45.3871 65.1771 45.3917 65.1743 45.3933 65.1725C45.3914 65.1725 45.3914 65.1706 45.3914 65.1706C45.1752 65.3383 44.953 65.4973 44.7267 65.654C44.7267 65.654 44.7267 65.654 44.7286 65.6587C44.7286 65.6568 44.7323 65.654 44.7323 65.6522C44.7727 65.758 46.7586 67.9478 46.7586 67.9478C46.7586 67.9478 46.9808 68.3937 46.7021 68.9654C46.1708 69.1884 45.7868 68.8573 45.7868 68.8573C45.7868 68.8573 43.7726 66.4291 43.704 66.3342C43.7077 66.3323 43.7124 66.3276 43.7141 66.3276C43.7122 66.3258 43.7122 66.3258 43.7122 66.3258C43.4981 66.4605 43.2818 66.5974 43.0737 66.723C43.0737 66.723 43.0719 66.7249 43.0719 66.7277C43.0737 66.7258 43.0737 66.7258 43.0756 66.723C43.116 66.8446 45.2191 69.4163 45.2191 69.4163C45.2191 69.4163 45.4838 69.9085 45.2898 70.4803C44.8171 70.6657 44.4171 70.2662 44.4171 70.2662C44.4171 70.2662 42.2432 67.3544 42.1806 67.2265C42.1825 67.2246 42.1863 67.2246 42.1863 67.2246C42.1863 67.2228 42.1863 67.2228 42.1863 67.2228C42.1551 67.2371 42.1241 67.2519 42.0933 67.2669C41.9926 67.3156 41.8944 67.3668 41.7984 67.4192L41.8049 67.4333L38.5263 68.7007L38.5468 68.8054C37.7461 69.0259 37.0005 69.1502 36.1892 69.2621C35.3829 69.3732 34.5712 69.4656 33.7623 69.5689L33.7624 69.5088L25.3814 67.9728L25.3747 67.9882ZM31.4818 28.8022C31.9251 28.7734 32.3721 28.7588 32.8224 28.7588L32.9854 28.7593V26.8958C32.9854 26.8958 32.9149 26.4362 32.2334 26.2415C31.5524 26.4362 31.4818 26.8958 31.4818 26.8958V28.8022ZM11.5358 51.8739L10.267 52.5644C10.0847 52.467 9.75403 52.2239 10.1997 51.9013C10.6513 51.8918 11.0962 51.8825 11.5358 51.8739ZM7.22568 46.9995L6.93504 46.9869L9.0397 43.7272L8.9927 43.9047L7.22568 46.9995ZM5.61634 46.9301L5.18744 46.9117L9.14716 43.3276L9.1329 43.3798L5.61634 46.9301ZM5.17261 47.3781L5.50971 47.38C5.51251 47.6756 5.5101 47.4606 5.50786 47.7693C4.99752 47.752 4.47924 47.7358 3.95323 47.7186C3.43655 47.4734 4.03282 47.3359 4.03282 47.3359C4.43523 47.3504 4.76002 47.3625 5.17232 47.3778L5.17261 47.3781ZM8.15271 36.7081L9.39146 42.4522L9.37524 42.5088L7.78033 36.6766C7.90635 36.6952 8.03191 36.705 8.15271 36.7081ZM12.5983 37.4738C12.8531 37.6534 13.1014 37.8293 13.3456 38.0013C13.5657 37.6241 13.81 37.2699 14.0625 36.9238C13.8209 36.7372 13.5747 36.5489 13.3237 36.3555C13.3237 36.3555 13.128 36.1493 12.5424 36.6001C12.3742 37.3717 12.5983 37.4738 12.5983 37.4738ZM13.4692 36.1568C13.719 36.3516 13.9661 36.5451 14.2055 36.732C14.4629 36.391 14.7225 36.052 14.9831 35.7141C14.7478 35.5151 14.5077 35.3127 14.2629 35.1068C14.2629 35.1068 14.0742 34.8916 13.4745 35.3135C13.2422 36.0371 13.4689 36.1568 13.4689 36.1568H13.4692ZM14.7097 37.1251C14.9365 37.3021 15.1631 37.4793 15.384 37.6518C15.6323 37.3284 15.8826 37.0068 16.1335 36.6847C15.9179 36.5027 15.6986 36.3181 15.4757 36.1289C15.4757 36.1289 15.3035 35.9301 14.7365 36.3379C14.5024 37.0183 14.7097 37.1251 14.7097 37.1251ZM13.8552 38.3605C14.0864 38.5249 14.3147 38.6862 14.5383 38.8438C14.762 38.4959 15.0006 38.1615 15.2449 37.8339C15.0245 37.6646 14.7982 37.4892 14.5675 37.3122C14.5675 37.3122 14.3909 37.1236 13.8341 37.5538C13.6506 38.2713 13.8552 38.3605 13.8552 38.3605ZM23.116 25.0748L21.8534 25.5695L21.7638 25.6047C21.6538 25.385 21.1484 24.3014 21.6952 23.9284L21.6953 23.9283L21.7841 23.8912L21.7878 23.8894C22.2082 23.7158 22.6217 23.8638 23.1326 25.0681L23.116 25.0748ZM21.7874 23.8898C22.2378 23.701 22.5308 23.577 22.7357 23.4942L21.7874 23.8898ZM39.9473 74.1819C39.4422 74.2604 38.9339 74.3411 38.4312 74.4634C37.9237 74.5866 37.4217 74.7127 36.916 74.7971C36.4117 74.8812 35.9047 74.9533 35.3999 75.0261C34.8948 75.099 34.3888 75.1702 33.8838 75.2437C33.874 75.0785 33.864 74.9182 33.8542 74.753C34.4784 74.6662 35.1026 74.5763 35.7267 74.4879C35.9126 74.2997 36.0974 74.1165 36.281 73.9283C36.4744 74.0396 36.669 74.1493 36.8646 74.2589C37.0243 74.0919 37.1828 73.925 37.3402 73.7582C37.5643 73.8711 37.7895 73.9759 38.0169 74.0789C38.6279 73.9218 39.239 73.7992 39.85 73.706C39.8817 73.8614 39.9144 74.0215 39.9473 74.1819ZM49.3782 68.5486C48.776 69.1932 48.2023 69.8334 47.669 70.4647C47.8104 70.6215 47.9578 70.7781 48.1094 70.9371C48.6326 70.2837 49.1962 69.6236 49.7843 68.9592C49.6448 68.8201 49.5095 68.6833 49.3782 68.5486ZM39.1867 70.4538L39.2011 70.4528C39.4526 70.2616 39.4358 70.0519 39.4358 70.0519L39.1293 69.2431L38.8907 69.3335C38.9888 69.697 39.0986 70.0604 39.1867 70.4538ZM50.3392 30.8485C50.3258 30.8643 50.3018 30.8663 50.2859 30.8522C50.2701 30.8388 50.2682 30.8148 50.2822 30.799L51.7624 29.0653C51.7759 29.0494 51.7998 29.0476 51.8156 29.0607C51.8315 29.0742 51.8334 29.0981 51.8203 29.1139L50.3392 30.8485ZM53.4051 41.3442L54.7672 40.5144C54.9572 40.6082 55.17 40.7991 54.8296 41.1226C54.3477 41.1979 53.8734 41.2719 53.4051 41.3442ZM54.7057 35.5025L54.5743 35.5312C54.589 35.3796 54.6193 35.2301 54.679 35.1306C54.7013 35.2705 54.7075 35.3966 54.7057 35.5025ZM54.2271 35.607L53.474 35.771L53.6117 35.0709L53.708 35.0163C53.708 35.0163 53.6987 34.2382 54.1538 34.3063C54.4394 34.8493 54.256 35.4692 54.256 35.4692L54.2271 35.607ZM53.0663 35.8599L52.9739 35.8799C52.7581 35.5668 52.4279 35.0458 52.1725 34.7346C52.041 34.5741 51.905 34.4122 51.7654 34.2497L51.9103 33.8679L52.0794 33.7473C52.0794 33.7473 52.3378 32.7052 53.0792 33.1333C53.0978 33.1618 53.1402 33.2287 53.1924 33.3232C53.4554 33.8506 53.3721 34.4365 53.3721 34.4365L53.0663 35.8599ZM43.9924 24.7881C43.9276 24.9052 43.8058 24.9617 43.7204 24.9146C43.635 24.8673 43.6184 24.7341 43.6833 24.617C43.7481 24.4999 43.87 24.4433 43.9554 24.4904C44.0406 24.5377 44.0573 24.671 43.9924 24.7881ZM51.6944 35.08L49.5573 36.6246L51.6577 35.1066L51.6944 35.08ZM51.3784 33.8072C50.8295 33.1902 50.2426 32.5755 49.6699 32.0108L50.1243 31.4786C50.1243 31.4786 50.6482 31.0957 51.4671 31.5897C51.9788 32.104 51.7799 32.9275 51.7799 32.9275L51.3784 33.8072ZM49.2623 31.6151C48.6206 31.0021 47.9936 30.461 47.4431 30.021L47.9656 29.6742C47.9656 29.6742 48.7712 29.3382 49.3623 29.791C49.9926 30.5271 49.6929 31.1107 49.6929 31.1107L49.2623 31.6151ZM47.0545 29.7173C46.3301 29.1641 45.791 28.8305 45.6157 28.8004C45.6203 28.7787 45.6241 28.759 45.627 28.7417L45.449 28.6417L46.2243 28.34C46.2243 28.34 46.7903 28.1655 47.3527 28.3418C47.49 28.3915 47.5746 28.4313 47.5746 28.4313C48.1555 29.1089 47.144 29.5373 47.144 29.5373L47.0545 29.7173ZM45.1705 28.3892L45.6026 27.5824C45.5688 27.5553 45.5349 27.5284 45.5008 27.5018C45.717 27.4655 45.9893 27.4592 46.2589 27.5578C46.4289 28.0132 45.6339 28.1297 45.6339 28.1297L45.5953 28.2332L45.1705 28.3892ZM45.2091 27.2826C45.1596 27.2468 45.1095 27.2114 45.0593 27.1762C45.1593 27.1635 45.2737 27.1562 45.3996 27.1601C45.3996 27.1601 45.3842 27.1592 45.3574 27.1573C45.3846 27.1592 45.3996 27.1601 45.3996 27.1601C45.3546 27.2084 45.2874 27.2489 45.2091 27.2826ZM43.3466 24.4389C43.2816 24.556 43.1598 24.6127 43.0746 24.5654C42.9892 24.5181 42.9726 24.385 43.0374 24.2679C43.1023 24.1507 43.2242 24.0942 43.3094 24.1414C43.3948 24.1886 43.4114 24.3218 43.3466 24.4389ZM44.3549 24.0525C44.2901 24.1695 44.1683 24.2261 44.0829 24.1789C43.9975 24.1318 43.981 23.9985 44.0458 23.8814C44.1107 23.7642 44.2325 23.7076 44.3178 23.7549C44.4031 23.8021 44.4197 23.9353 44.3549 24.0525ZM44.4739 25.316C44.3885 25.2688 44.3719 25.1355 44.4368 25.0184C44.5016 24.9012 44.6235 24.8446 44.7088 24.8919C44.7942 24.9392 44.8108 25.0724 44.7459 25.1895C44.681 25.3066 44.5592 25.3632 44.4739 25.316ZM44.8996 24.5476C44.8142 24.5005 44.7975 24.3672 44.8624 24.2501C44.9274 24.1331 45.0491 24.0764 45.1344 24.1237C45.2198 24.1708 45.2364 24.3041 45.1716 24.4213C45.1066 24.5383 44.9849 24.595 44.8996 24.5476ZM42.5522 23.8677C42.6375 23.915 42.654 24.0482 42.5892 24.1653C42.5244 24.2824 42.4025 24.339 42.3172 24.2918C42.2318 24.2446 42.2152 24.1114 42.2801 23.9943C42.345 23.8772 42.4668 23.8205 42.5522 23.8677ZM43.6258 23.4543C43.7111 23.5014 43.7278 23.6347 43.6629 23.7518C43.598 23.8689 43.4763 23.9256 43.3909 23.8784C43.3055 23.8311 43.2889 23.6978 43.3538 23.5808C43.4186 23.4637 43.5405 23.4071 43.6258 23.4543ZM42.8831 23.1486C42.9685 23.1959 42.9851 23.329 42.9204 23.4462C42.8554 23.5633 42.7336 23.6199 42.6483 23.5726C42.5629 23.5255 42.5463 23.3922 42.6112 23.2751C42.676 23.158 42.7979 23.1014 42.8831 23.1486ZM53.7966 33.8327C53.7882 33.8335 53.7807 33.8309 53.7741 33.8262C53.7685 33.8206 53.7648 33.813 53.7643 33.8043C53.7625 33.7829 53.5966 31.6397 52.2124 29.4973C52.2012 29.4797 52.2059 29.4564 52.2237 29.445C52.2365 29.4366 52.2523 29.4375 52.2644 29.4449C52.2653 29.4467 52.2672 29.4477 52.2681 29.4495C52.9968 30.5774 53.3831 31.6976 53.5789 32.4386C53.7911 33.242 53.8315 33.7868 53.8318 33.7922C53.8336 33.813 53.8176 33.8311 53.7968 33.8325L53.7966 33.8327ZM51.932 29.189C51.9438 29.1835 51.9568 29.1853 51.967 29.1918C51.9698 29.1946 51.9717 29.1984 51.9736 29.2018C52.4039 30.1797 52.503 31.0515 52.5105 31.6106C52.5179 32.2175 52.4257 32.5877 52.4216 32.6031C52.417 32.6234 52.3958 32.6356 52.3758 32.6304C52.372 32.6295 52.3683 32.6276 52.3654 32.6257C52.357 32.6164 52.3532 32.6041 52.3561 32.5912C52.357 32.5875 52.4506 32.2132 52.4424 31.6153C52.4349 31.0639 52.3367 30.204 51.9122 29.2392C51.9038 29.2201 51.9123 29.1977 51.9316 29.1893L51.932 29.189ZM51.5895 28.9632C50.5694 28.6958 49.7042 28.7342 49.1582 28.8135C48.5662 28.8995 48.211 29.0505 48.2075 29.0521C48.1938 29.0577 48.1786 29.0558 48.1679 29.0465C48.1633 29.0427 48.1605 29.0381 48.1578 29.0327C48.1494 29.0136 48.1584 28.9914 48.1776 28.9831C48.1922 28.9766 48.5434 28.8271 49.1444 28.7395C49.6979 28.6587 50.5747 28.6195 51.6086 28.8903C51.6289 28.8959 51.6409 28.9163 51.6357 28.9366C51.6301 28.9568 51.6096 28.9687 51.5895 28.9635V28.9632ZM46.7871 27.8535C46.7764 27.8544 46.7666 27.8507 46.7593 27.8441C46.7518 27.8376 46.7471 27.8289 46.7461 27.8187C46.7443 27.7978 46.7598 27.7795 46.7805 27.7778C46.7861 27.7773 47.3305 27.7314 48.1576 27.8147C48.9206 27.8912 50.0882 28.0963 51.3171 28.6383C51.3364 28.6467 51.3449 28.669 51.3366 28.6881C51.3282 28.7072 51.3058 28.7157 51.2867 28.7075C48.9521 27.678 46.8084 27.8512 46.7871 27.853V27.8535ZM60.054 44.9697C60.0447 44.8468 60.0378 44.721 60.0294 44.5917C60.5379 44.5407 61.0542 44.4875 61.5786 44.4344C62.1232 44.6083 61.5507 44.8242 61.5507 44.8242C61.0442 44.8739 60.5462 44.9222 60.054 44.9697ZM57.473 45.2192C57.4369 45.1034 57.4006 44.985 57.3637 44.8638C57.8372 44.8151 58.317 44.7666 58.8044 44.7164C59.3641 44.8817 58.8691 45.0841 58.8691 45.0841C58.3973 45.1304 57.9323 45.1755 57.473 45.2192ZM55.1595 45.4433C55.101 45.3328 55.0431 45.2197 54.9833 45.1047C55.4266 45.0601 55.8756 45.0145 56.3309 44.9683C56.9015 45.1252 56.4695 45.3171 56.4695 45.3171C56.0272 45.3599 55.59 45.4022 55.1595 45.4433ZM60.7692 44.0765C60.7687 43.6483 60.7693 43.1875 60.771 42.6934C60.7729 42.1585 60.7766 41.5801 60.782 40.9508C61.2401 40.8839 61.7061 40.8159 62.1777 40.7456C62.1143 41.3939 62.0568 41.9897 62.0053 42.5387C61.9577 43.0461 61.9138 43.519 61.8736 43.9572C61.5015 43.9977 61.1331 44.0369 60.7692 44.0765ZM59.7764 40.3495C59.7636 40.1023 59.7494 39.8473 59.7375 39.5835C60.4643 39.4634 61.2048 39.3403 61.9622 39.2137C61.9622 39.2137 62.753 39.4269 61.9016 40.0174C61.1784 40.1302 60.4717 40.2411 59.7764 40.3495ZM56.1945 40.9101C56.128 40.6825 56.0625 40.4479 55.9937 40.2061C56.6514 40.0966 57.32 39.9851 58.0033 39.8717C58.0033 39.8717 58.7892 40.069 58.1191 40.6089C57.4647 40.7114 56.8232 40.8118 56.1945 40.9101ZM57.5928 56.4274C57.3665 57.189 57.1241 57.9506 56.8676 58.7144C56.8713 58.7162 56.876 58.7162 56.8797 58.719C56.9302 58.7654 56.9807 58.8117 57.0352 58.858C57.2332 58.9441 57.4312 59.0324 57.6332 59.1207C57.6332 59.1207 58.3322 59.4475 59.2657 58.549C59.2878 58.5247 59.31 58.5026 59.3323 58.4805C59.3647 58.4916 59.3969 58.5048 59.4314 58.5203C59.4398 58.5622 59.4737 58.602 59.5203 58.624C59.5688 58.6417 59.6192 58.6373 59.6495 58.6064C59.7242 58.6329 59.797 58.6637 59.8717 58.6946C59.8818 58.7257 59.9062 58.7521 59.9384 58.7654C59.9728 58.7786 60.0091 58.7738 60.0314 58.7588C60.1142 58.7897 60.201 58.8206 60.2839 58.8559C60.3122 58.854 60.3405 58.854 60.3688 58.854C60.3485 58.8342 60.3243 58.8143 60.3041 58.7967C60.2213 58.7592 60.1424 58.7238 60.0616 58.6929C60.0551 58.6576 60.0294 58.6201 59.9868 58.6025C59.9485 58.5892 59.9121 58.5978 59.8858 58.6201C59.8173 58.5892 59.7465 58.5583 59.6778 58.5295C59.6759 58.4832 59.6413 58.4325 59.5849 58.4104C59.5323 58.3883 59.4778 58.3993 59.4495 58.4347C59.4213 58.4193 59.3889 58.4082 59.3586 58.395C59.353 58.3575 59.3465 58.3264 59.3425 58.2933C59.1162 56.9359 58.405 56.6753 58.405 56.6753C58.2009 56.5958 57.999 56.5208 57.8029 56.4414C57.7363 56.4395 57.6736 56.4367 57.6069 56.4348C57.6032 56.4302 57.6004 56.4302 57.5928 56.4283V56.4274ZM56.9524 56.1846C56.7242 56.9286 56.4876 57.6768 56.2311 58.4274C56.3988 58.5025 56.5685 58.5775 56.7382 58.6547C56.9949 57.8977 57.2371 57.1338 57.4655 56.3811C57.2937 56.3104 57.1201 56.2464 56.9524 56.1846ZM55.3543 67.9769C56.4311 66.6127 57.4412 65.2352 58.3586 63.8336C58.7384 64.0565 59.1282 64.2837 59.5283 64.5178C58.5748 65.9659 57.5403 67.3875 56.4573 68.7914C56.0795 68.511 55.7118 68.2441 55.3543 67.9769ZM47.9336 68.1733C48.3518 67.7694 48.774 67.3566 49.1983 66.9371C49.2447 66.9879 49.2892 67.0343 49.3357 67.0807C48.9114 67.5045 48.4892 67.9238 48.071 68.3345C48.0245 68.2794 47.9781 68.2286 47.9336 68.1733ZM46.3658 69.7759C46.7294 69.3853 47.1094 68.9946 47.5012 68.5994C47.5497 68.6569 47.5982 68.7053 47.6447 68.7627C47.2547 69.1623 46.879 69.5573 46.5154 69.9525C46.4648 69.893 46.4142 69.8378 46.3658 69.7759ZM44.9112 71.0872C45.2287 70.8972 45.667 70.5218 46.0041 70.1777C46.0527 70.2395 46.1052 70.2992 46.1536 70.3653C45.8365 70.7473 45.382 70.9978 45.0748 71.2947C45.0183 71.2241 44.9618 71.1556 44.9112 71.0872ZM56.1038 54.7586C56.2473 54.2729 56.3948 53.7874 56.5463 53.3017C56.6089 53.3193 56.6715 53.337 56.7342 53.3591C56.5806 53.8447 56.4332 54.3326 56.2878 54.8204C56.2251 54.7984 56.1624 54.7784 56.1038 54.7586ZM55.4977 56.7364C55.6513 56.2442 55.8007 55.7586 55.9482 55.2707C56.0088 55.2927 56.0714 55.3148 56.1341 55.3369C55.9867 55.8248 55.8351 56.317 55.6816 56.8093C55.6189 56.7851 55.5584 56.7608 55.4977 56.7364ZM54.8007 58.7231C54.9866 58.231 55.1623 57.7409 55.328 57.2508C55.3886 57.2751 55.4513 57.2994 55.5118 57.3259C55.3442 57.8204 55.1685 58.3148 54.9784 58.8094C54.9178 58.7806 54.8593 58.7519 54.8007 58.7231ZM53.4613 68.8599C53.6472 68.6303 53.8349 68.4029 54.0229 68.1733C54.522 68.5509 55.0411 68.9438 55.5927 69.3565C55.9018 70.2462 55.0512 70.0718 55.0512 70.0718C54.4936 69.6502 53.9643 69.2462 53.4613 68.8599ZM58.007 62.5995C58.1322 62.3589 58.2556 62.1205 58.3768 61.8798C58.9384 62.1734 59.5222 62.478 60.1222 62.7916C60.1222 62.7916 60.6213 63.456 59.7161 63.5487C59.1282 63.222 58.5565 62.9086 58.007 62.5995ZM55.2553 61.0917C55.3644 60.8643 55.4713 60.6415 55.5766 60.4164C56.0533 60.6635 56.5483 60.9196 57.0574 61.1867C57.0574 61.1867 57.4797 61.7783 56.712 61.8842C56.2129 61.6106 55.726 61.3456 55.2553 61.0917ZM51.0893 66.9283C51.2794 66.7207 51.4631 66.5155 51.647 66.3081C52.043 66.6457 52.4551 66.9813 52.8855 67.3146C53.041 68.0718 52.3177 67.9835 52.3177 67.9835C51.8874 67.6303 51.4794 67.2771 51.0893 66.9283ZM49.271 65.1778C49.4469 64.9946 49.6145 64.8091 49.7823 64.6259C50.1175 64.9328 50.4591 65.2507 50.8126 65.5751C50.8953 66.2771 50.2752 66.1645 50.2752 66.1645C49.9297 65.829 49.5923 65.5022 49.271 65.1778ZM52.9986 59.8732C53.0976 59.6614 53.1924 59.4538 53.2875 59.2464C53.6976 59.4604 54.1219 59.679 54.5604 59.8997C54.5604 59.8997 54.9159 60.4252 54.2512 60.5576C53.8208 60.3281 53.4027 60.1006 52.9986 59.8732ZM49.8893 69.063C49.3013 69.7295 48.7437 70.3984 48.2226 71.0563C48.2263 71.0582 48.231 71.0657 48.2367 71.0673C48.2751 71.1402 48.3155 71.2086 48.3559 71.2815C48.5336 71.4647 48.7114 71.6435 48.9014 71.8223C48.9014 71.8223 49.554 72.4603 50.756 71.8818C50.7843 71.8642 50.8146 71.8487 50.845 71.8333C50.8732 71.8554 50.9035 71.8797 50.9318 71.9039C50.9234 71.9548 50.9459 72.021 50.9964 72.0585C51.0469 72.1005 51.1096 72.1071 51.15 72.0806C51.2146 72.1313 51.2833 72.1865 51.3459 72.2395C51.3441 72.2792 51.3621 72.3234 51.4004 72.3521C51.4368 72.3829 51.4793 72.3874 51.5097 72.3675C51.5884 72.4272 51.6671 72.4845 51.7459 72.5441C51.7722 72.5534 51.8046 72.5618 51.8328 72.5705C51.8187 72.5419 51.7984 72.5132 51.7824 72.4867C51.7055 72.4227 51.6267 72.3564 51.548 72.2969C51.548 72.2617 51.5278 72.2241 51.4954 72.1998C51.4651 72.1732 51.4267 72.1623 51.3984 72.1732C51.3297 72.1158 51.259 72.0585 51.1904 72.0011C51.1941 71.9503 51.1701 71.8952 51.1237 71.8576C51.0813 71.8201 51.0267 71.8113 50.9904 71.8289C50.958 71.8024 50.9297 71.7758 50.8994 71.7516C50.9078 71.712 50.9115 71.6766 50.9156 71.6412C51.1944 70.1578 50.5842 69.6281 50.5842 69.6281C50.4125 69.4735 50.2489 69.3146 50.0913 69.1556C50.0246 69.1269 49.9621 69.1005 49.8974 69.074C49.8937 69.0675 49.8937 69.0647 49.889 69.063H49.8893ZM40.5219 70.217L39.8457 70.473L40.1522 71.2816C40.1522 71.2816 40.2787 71.45 40.5937 71.4266C40.8453 71.2353 40.8284 71.0257 40.8284 71.0257L40.5219 70.217ZM41.4174 69.8781L40.7411 70.1342L41.0474 70.9427C41.0474 70.9427 41.1741 71.1109 41.4891 71.0877C41.7404 70.8966 41.7238 70.6867 41.7238 70.6867L41.4174 69.8781ZM42.3124 69.5392L41.6364 69.7951L41.9429 70.6038C41.9429 70.6038 42.0693 70.7721 42.3844 70.7487C42.6358 70.5575 42.6189 70.3477 42.6189 70.3477L42.3124 69.5392ZM41.139 68.4825L41.4455 69.2912C41.4455 69.2912 41.5718 69.4594 41.887 69.4361C42.1384 69.2448 42.1215 69.0352 42.1215 69.0352L41.815 68.2263L41.139 68.4825ZM40.2436 68.8212L40.55 69.6301C40.55 69.6301 40.6767 69.7982 40.9917 69.775C41.2429 69.5839 41.2264 69.3741 41.2264 69.3741L40.9199 68.5652L40.2436 68.8212ZM39.3485 69.1602L39.6549 69.969C39.6549 69.969 39.7812 70.1372 40.0962 70.114C40.3479 69.9227 40.331 69.7132 40.331 69.7132L40.0245 68.9042L39.3485 69.1602ZM39.6268 70.556L39.2391 70.7027L39.4506 71.7404C39.515 71.7605 39.5969 71.7729 39.6985 71.7655C39.95 71.5743 39.9332 71.3645 39.9332 71.3645L39.6268 70.556ZM37.5927 81.6521C37.3063 81.9008 37.4014 82.3557 37.8047 82.3966C37.8398 82.6484 37.8759 82.9036 37.9109 83.1622C37.7851 83.239 37.7064 83.3814 37.7238 83.5238C37.7403 83.6726 37.855 83.779 37.9993 83.8035C38.043 84.1062 38.0846 84.4137 38.1284 84.7312C38.1885 84.8146 38.2475 84.9013 38.3065 84.9879C38.3437 84.885 38.3798 84.7786 38.4147 84.6772C38.3787 84.3499 38.3437 84.0326 38.3076 83.7168C38.4093 83.6349 38.4694 83.5074 38.453 83.3798C38.4365 83.2555 38.3524 83.1638 38.2421 83.1213C38.2104 82.8465 38.1797 82.5765 38.1502 82.3081C38.4913 82.0792 38.4343 81.6112 38.0606 81.5262C38.0606 81.5243 38.0606 81.5224 38.0606 81.5224C38.3415 80.9598 38.9172 80.6183 39.5767 80.2317C40.2234 79.8525 40.954 79.4219 41.5245 78.6545C42.7894 76.9498 40.2905 75.4642 40.2905 75.4642C39.7484 75.5444 39.2018 75.6207 38.664 75.7374C38.1169 75.8563 37.5814 76.0039 37.0374 76.099C36.4969 76.1936 35.953 76.2724 35.4108 76.3526C34.8687 76.4328 34.3265 76.5113 33.7843 76.5931C33.7843 76.5931 31.8583 78.8704 33.5109 80.0255C34.262 80.5933 35.0884 80.7864 35.8186 80.9417C36.5575 81.0989 37.197 81.215 37.5927 81.6518V81.6521ZM40.1343 75.1013C39.0552 75.2622 38.0811 75.5393 37.0362 75.7182C36.0078 75.8943 34.97 76.0257 33.9384 76.1829C33.9276 76.0045 33.9176 75.8277 33.9068 75.6526C34.9267 75.5024 35.9522 75.3691 36.9686 75.1979C37.9962 75.0248 38.9704 74.7442 40.0281 74.5811C40.0632 74.7545 40.0993 74.9279 40.1343 75.1013ZM38.1535 71.9847C38.0923 71.6363 38.0332 71.296 37.9742 70.9622C37.4866 71.0881 36.9981 71.1765 36.5095 71.2517C36.5543 71.5953 36.6012 71.9438 36.6482 72.3005C36.6482 72.3005 36.6398 72.6228 37.4857 72.7308C38.2529 72.2465 38.1535 71.9847 38.1535 71.9847ZM36.3673 72.343C36.3226 71.9863 36.2787 71.633 36.2361 71.291C35.7475 71.3581 35.2589 71.4219 34.7702 71.4841C34.7998 71.8325 34.8305 72.1876 34.8621 72.5492C34.8621 72.5492 34.8403 72.8732 35.6743 73.0155C36.4548 72.6212 36.3673 72.343 36.3673 72.343ZM36.1454 70.5712C36.105 70.2473 36.0645 69.9233 36.0252 69.6076C35.5584 69.6681 35.0917 69.7253 34.6238 69.7826C34.6511 70.1016 34.6795 70.4256 34.707 70.756C34.707 70.756 34.6851 71.0537 35.4808 71.1815C36.2273 70.8232 36.1454 70.5712 36.1454 70.5712ZM37.8517 70.2653C37.7971 69.9479 37.7425 69.6354 37.6889 69.3294C37.2222 69.4292 36.7544 69.5061 36.2875 69.5732C36.3291 69.8856 36.3705 70.208 36.4143 70.5352C36.4143 70.5352 36.4045 70.8281 37.2101 70.9294C37.9457 70.5007 37.8517 70.2653 37.8517 70.2653ZM31.4464 20.0276H31.7525L31.7196 19.6501L31.4464 20.0276ZM33.1035 20.0276H33.4096L33.1363 19.6501L33.1035 20.0276ZM4.70769 48.1815C4.65116 48.6059 4.58886 49.0626 4.52123 49.552C4.44782 50.0818 4.36703 50.6545 4.27767 51.2775C3.81472 51.2822 3.34374 51.2879 2.86708 51.2947C3.01633 50.6605 3.15291 50.0777 3.27735 49.5407C3.39236 49.0439 3.49889 48.5814 3.59711 48.1524C3.97135 48.1619 4.34175 48.1722 4.70769 48.1815ZM5.19396 52.0076C5.17343 52.2543 5.15357 52.5089 5.13016 52.772C4.39381 52.794 3.64347 52.8172 2.87596 52.8416C2.87596 52.8416 2.12087 52.5249 3.04341 52.0532C3.77519 52.0378 4.49053 52.0222 5.19396 52.0076ZM8.81863 51.9299C8.85407 52.1644 8.88784 52.4056 8.92347 52.6544C8.25717 52.6751 7.57959 52.6964 6.88736 52.7176C6.88736 52.7176 6.13479 52.4172 6.87105 51.9715C7.53324 51.9574 8.18246 51.9435 8.81863 51.9299Z" fill="url(#paint0_linear_314_948)"/>
<path d="M14.9516 57.0521L12.5908 51.1501" stroke="white" stroke-width="0.557655"/>
<path fill-rule="evenodd" clip-rule="evenodd" d="M32.854 28.7224C44.0452 28.7224 53.1175 37.8828 53.1175 49.1826C53.1175 60.4822 44.0452 69.6425 32.854 69.6425C21.6631 69.6425 12.5908 60.4822 12.5908 49.1826C12.5908 37.8828 21.6631 28.7224 32.854 28.7224Z" fill="#1B1918"/>
<path fill-rule="evenodd" clip-rule="evenodd" d="M32.853 28.7231C38.5573 28.7231 43.7215 31.0133 47.4596 34.7158C51.1977 38.4183 53.5099 43.5333 53.5099 49.1832C53.5099 54.8331 51.1977 59.9482 47.4596 63.6507C43.7215 67.3532 38.5573 69.6433 32.853 69.6433C27.1489 69.6433 21.9846 67.3532 18.2465 63.6507C14.5084 59.9482 12.1963 54.8331 12.1963 49.1832C12.1963 43.5334 14.5084 38.4183 18.2465 34.7158C21.9846 31.0133 27.1489 28.7231 32.853 28.7231ZM47.1391 35.0333C43.4831 31.4121 38.4321 29.1722 32.853 29.1722C27.274 29.1722 22.2231 31.4121 18.567 35.0333C14.911 38.6545 12.6496 43.6572 12.6496 49.1832C12.6496 54.7092 14.9111 59.712 18.567 63.3333C22.2231 66.9545 27.274 69.1942 32.853 69.1942C38.4321 69.1942 43.4831 66.9544 47.1391 63.3332C50.7951 59.712 53.0565 54.7092 53.0565 49.1832C53.0565 43.6573 50.7951 38.6545 47.1391 35.0333Z" fill="#1B1918"/>
<path fill-rule="evenodd" clip-rule="evenodd" d="M22.4277 53.9323H22.8829C23.1871 53.9323 23.3392 54.0655 23.3392 54.3324C23.3392 54.4567 23.3034 54.5506 23.2315 54.6144C23.1596 54.678 23.0644 54.71 22.946 54.71H22.7463V55.0576H22.4277V53.9323ZM22.7463 54.2089V54.4475H22.9005C22.9885 54.4475 23.0326 54.4081 23.0326 54.3292C23.0326 54.2489 22.9866 54.2089 22.8947 54.2089H22.7463ZM27.0906 53.9323L27.4752 55.0576H27.1508L27.0995 54.8979H26.7635L26.7121 55.0576H26.3876L26.7736 53.9323H27.0906ZM27.0291 54.6562L26.9733 54.4633C26.9605 54.4182 26.9474 54.3612 26.9337 54.2927C26.918 54.3603 26.9032 54.4176 26.8897 54.4651C26.875 54.5166 26.8559 54.5805 26.8324 54.6562H27.0291ZM31.4676 54.7638V55.0576H30.6822V53.9323H31.0038V54.7638H31.4676ZM35.3452 53.9323L35.7298 55.0576H35.4053L35.354 54.8979H35.018L34.9667 55.0576H34.6422L35.0281 53.9323H35.3452ZM35.2837 54.6562L35.2278 54.4633C35.2149 54.4182 35.2018 54.3612 35.1883 54.2927C35.1725 54.3603 35.1578 54.4176 35.1441 54.4651C35.1294 54.5166 35.1105 54.5805 35.087 54.6562H35.2837ZM39.9188 54.6135C39.9103 54.7633 39.8603 54.8793 39.77 54.9613C39.6793 55.0435 39.5676 55.0844 39.4345 55.0844C39.277 55.0844 39.1503 55.0283 39.0543 54.9155C38.9584 54.8027 38.9106 54.6617 38.9106 54.4918C38.9106 54.3243 38.9598 54.1844 39.0578 54.0722C39.1562 53.9602 39.2837 53.9041 39.4403 53.9041C39.5676 53.9041 39.6763 53.9464 39.7669 54.0313C39.8573 54.1159 39.9065 54.2216 39.9142 54.3482H39.6031C39.5947 54.2975 39.5753 54.2584 39.5459 54.231C39.5165 54.2037 39.4793 54.1899 39.4345 54.1899C39.3874 54.1899 39.3481 54.206 39.3163 54.2382C39.2845 54.2705 39.2626 54.3079 39.2511 54.3514C39.2394 54.3945 39.2334 54.4414 39.2334 54.4918C39.2334 54.5857 39.2512 54.6593 39.2869 54.7131C39.3227 54.7669 39.3719 54.7938 39.4345 54.7938C39.5304 54.7938 39.5865 54.7336 39.6031 54.6135H39.9188ZM44.0536 53.9323V54.2057H43.5032V54.3465H44.002V54.6072H43.5032V54.7716H44.0682V55.0576H43.1875V53.9323H44.0536Z" fill="#D8B35A"/>
<path fill-rule="evenodd" clip-rule="evenodd" d="M21.0314 46.4282C21.1893 46.4328 21.462 46.4728 21.8495 46.5477C22.1174 46.6133 22.2801 46.6296 22.3375 46.5969C22.371 46.5735 22.3902 46.5407 22.3949 46.4985H22.4667L22.6173 48.1707L22.5528 48.2129C22.4427 47.0747 21.9285 46.5009 21.0099 46.4915C20.6941 46.4915 20.443 46.6156 20.2564 46.8638C20.1368 47.0278 20.077 47.2152 20.077 47.426C20.077 47.7633 20.2899 48.063 20.7157 48.3254C20.8113 48.3815 21.1271 48.5384 21.6629 48.796C22.2466 49.0771 22.6484 49.3605 22.8686 49.6462C23.0886 49.9272 23.1986 50.2528 23.1986 50.6228C23.1986 51.1568 22.9666 51.5831 22.5026 51.9016C22.2921 52.0374 22.0504 52.1404 21.7777 52.2107C21.4716 52.2903 21.1295 52.3302 20.7516 52.3302C20.3306 52.3302 19.9096 52.2739 19.4886 52.1615C19.211 52.096 19.0651 52.1287 19.0508 52.2599H18.9575L18.8857 49.9694L18.9718 49.9202C18.9814 50.7259 19.1752 51.3395 19.5531 51.761C19.8546 52.0936 20.2541 52.2599 20.7516 52.2599C21.1917 52.2411 21.5434 52.0608 21.8065 51.7189C21.9547 51.5175 22.0289 51.3231 22.0289 51.1357C22.0289 50.8078 21.8184 50.5127 21.3974 50.2504C21.316 50.1989 21.0099 50.0373 20.4788 49.7656C19.9 49.4706 19.5005 49.1755 19.2805 48.8803C19.0651 48.59 18.9575 48.2551 18.9575 47.8756C18.9575 47.2573 19.2636 46.8334 19.8761 46.6039C20.1918 46.4915 20.5769 46.4329 21.0314 46.4282ZM23.4858 46.4985H26.2199V46.5617C25.8754 46.5617 25.66 46.7205 25.5812 47.0395C25.5501 47.1655 25.5381 47.3207 25.5381 47.5033V49.9067H27.5259V47.5033C27.5259 47.0676 27.4449 46.7909 27.282 46.6742C27.177 46.5989 27.0308 46.5617 26.8442 46.5617V46.4985H29.5784V46.5617C29.2291 46.5617 29.0138 46.721 28.9325 47.0395C28.9038 47.166 28.8894 47.3182 28.8894 47.4963V51.2621C28.8894 51.7541 29.0162 52.0491 29.2698 52.1475C29.3606 52.1803 29.4635 52.1967 29.5784 52.1967V52.2669H26.8442V52.1967C27.1695 52.1967 27.3728 52.0749 27.4542 51.8313C27.502 51.6955 27.5259 51.5034 27.5259 51.2552V50.1099H25.5381V51.2552C25.5381 51.747 25.6625 52.0445 25.9113 52.1475C25.9974 52.1803 26.1003 52.1967 26.2199 52.1967V52.2669H23.4858V52.1967C23.5431 52.1967 23.5958 52.1939 23.6436 52.1894C23.6914 52.1848 23.7344 52.1753 23.7727 52.1612C23.8111 52.1472 23.8469 52.132 23.8804 52.1156C23.9139 52.0992 23.9438 52.0781 23.9701 52.0523C23.9964 52.0266 24.0192 51.9985 24.0383 51.968C24.0574 51.9376 24.0742 51.9025 24.0885 51.8627C24.1029 51.8229 24.1161 51.7819 24.128 51.7397C24.14 51.6976 24.1483 51.6507 24.1531 51.5991C24.1578 51.5477 24.1615 51.4938 24.1638 51.4376C24.1666 51.3813 24.1676 51.3205 24.1676 51.2549V47.503C24.1676 47.0673 24.0886 46.791 23.9307 46.6739C23.8207 46.5989 23.6724 46.5615 23.4858 46.5615L23.4858 46.4985ZM32.4417 46.4494C33.1498 46.4494 33.7501 46.7187 34.243 47.2573C34.7309 47.796 34.9892 48.4611 35.0179 49.2528C35.0179 49.2996 35.0179 49.3441 35.0179 49.3863C35.0179 50.1872 34.7811 50.8688 34.3075 51.4308C33.8386 51.9835 33.2574 52.2786 32.5637 52.3161C32.5206 52.3161 32.4799 52.3161 32.4417 52.3161C31.724 52.3161 31.1189 52.0445 30.6261 51.5011C30.1429 50.9624 29.887 50.2949 29.8582 49.4986C29.8582 49.4565 29.8582 49.419 29.8582 49.3863C29.8582 48.5806 30.095 47.8967 30.5687 47.3346C31.0375 46.7772 31.6236 46.4822 32.3269 46.4494C32.3652 46.4494 32.4034 46.4494 32.4417 46.4494ZM32.4417 46.5126C32.1403 46.5126 31.8771 46.7725 31.6523 47.2925C31.3987 47.8827 31.272 48.5806 31.272 49.3863C31.272 50.2294 31.4083 50.9484 31.681 51.5433C31.9011 52.0117 32.1546 52.2505 32.4417 52.2599C32.7431 52.2554 33.0062 51.9929 33.231 51.4729C33.4798 50.8828 33.6066 50.1872 33.6114 49.3863C33.6114 48.5384 33.4751 47.817 33.2024 47.2221C32.9775 46.7538 32.724 46.5173 32.4417 46.5126ZM37.8812 46.4282C38.0392 46.4328 38.3118 46.4728 38.6994 46.5477C38.9672 46.6133 39.1299 46.6296 39.1874 46.5969C39.2208 46.5735 39.24 46.5407 39.2448 46.4985H39.3165L39.4671 48.1707L39.4026 48.2129C39.2925 47.0747 38.7783 46.5009 37.8597 46.4915C37.544 46.4915 37.2928 46.6156 37.1062 46.8638C36.9866 47.0278 36.9268 47.2152 36.9268 47.426C36.9268 47.7633 37.1397 48.063 37.5655 48.3254C37.6612 48.3815 37.9769 48.5384 38.5128 48.796C39.0964 49.0771 39.4982 49.3605 39.7184 49.6462C39.9384 49.9272 40.0485 50.2528 40.0485 50.6228C40.0485 51.1568 39.8165 51.5831 39.3524 51.9016C39.1419 52.0374 38.9003 52.1404 38.6276 52.2107C38.3214 52.2903 37.9793 52.3302 37.6014 52.3302C37.1804 52.3302 36.7594 52.2739 36.3384 52.1615C36.0609 52.096 35.915 52.1287 35.9005 52.2599H35.8073L35.7355 49.9694L35.8217 49.9202C35.8312 50.7259 36.025 51.3395 36.4029 51.761C36.7044 52.0936 37.1039 52.2599 37.6014 52.2599C38.0415 52.2411 38.3932 52.0608 38.6563 51.7189C38.8046 51.5175 38.8788 51.3231 38.8788 51.1357C38.8788 50.8078 38.6683 50.5127 38.2472 50.2504C38.1659 50.1989 37.8597 50.0373 37.3287 49.7656C36.7498 49.4706 36.3503 49.1755 36.1303 48.8803C35.915 48.59 35.8073 48.2551 35.8073 47.8756C35.8073 47.2573 36.1135 46.8334 36.7259 46.6039C37.0416 46.4915 37.4267 46.4329 37.8812 46.4282ZM40.3356 46.4985H43.0697V46.5617C42.7252 46.5617 42.5099 46.7205 42.431 47.0395C42.3999 47.1655 42.388 47.3207 42.388 47.5033V49.9067H44.3757V47.5033C44.3757 47.0676 44.2946 46.7909 44.1318 46.6742C44.0268 46.5989 43.8806 46.5617 43.694 46.5617V46.4985H46.4281V46.5617C46.0789 46.5617 45.8636 46.721 45.7823 47.0395C45.7536 47.166 45.7393 47.3182 45.7393 47.4963V51.2621C45.7393 51.7541 45.8661 52.0491 46.1196 52.1475C46.2105 52.1803 46.3134 52.1967 46.4281 52.1967V52.2669H43.694V52.1967C44.0193 52.1967 44.2227 52.0749 44.3041 51.8313C44.3518 51.6955 44.3757 51.5034 44.3757 51.2552V50.1099H42.388V51.2552C42.388 51.747 42.5123 52.0445 42.7611 52.1475C42.8472 52.1803 42.9501 52.1967 43.0697 52.1967V52.2669H40.3356V52.1967C40.393 52.1967 40.4456 52.1939 40.4934 52.1894C40.5412 52.1848 40.5843 52.1753 40.6226 52.1612C40.6608 52.1472 40.6968 52.132 40.7303 52.1156C40.7637 52.0992 40.7936 52.0781 40.8199 52.0523C40.8463 52.0266 40.869 51.9985 40.8881 51.968C40.9072 51.9376 40.924 51.9025 40.9384 51.8627C40.9526 51.8229 40.9659 51.7819 40.9778 51.7397C40.9898 51.6976 40.9982 51.6507 41.0029 51.5991C41.0076 51.5477 41.0113 51.4938 41.0137 51.4376C41.0165 51.3813 41.0174 51.3205 41.0174 51.2549V47.503C41.0174 47.0673 40.9386 46.791 40.7806 46.6739C40.6706 46.5989 40.5223 46.5615 40.3357 46.5615L40.3356 46.4985Z" fill="#D8B35A"/>
<path fill-rule="evenodd" clip-rule="evenodd" d="M23.9585 43.3108V44.4342H23.5726V43.9909H23.2081V44.4342H22.8203V43.3108H23.2081V43.6879H23.5726V43.3108H23.9585ZM28.5544 43.2808C28.7431 43.2808 28.8953 43.3351 29.0108 43.4441C29.1267 43.5529 29.1844 43.6957 29.1844 43.8725C29.1844 44.0481 29.1264 44.1901 29.01 44.2986C28.8939 44.4068 28.7407 44.4611 28.5506 44.4611C28.3572 44.4611 28.2016 44.4071 28.0837 44.2993C27.9656 44.1916 27.9066 44.0487 27.9066 43.8708C27.9066 43.6931 27.9656 43.5504 28.0837 43.4427C28.2016 43.3346 28.3585 43.2808 28.5544 43.2808ZM28.5488 43.5571C28.4709 43.5571 28.4099 43.5842 28.3657 43.639C28.3214 43.6936 28.2991 43.7695 28.2991 43.8661C28.2991 43.9661 28.3212 44.0436 28.3646 44.0988C28.4083 44.1542 28.4703 44.1818 28.5504 44.1818C28.6297 44.1818 28.6898 44.1542 28.7312 44.0988C28.7722 44.0436 28.7929 43.963 28.7929 43.8567C28.7929 43.763 28.7715 43.6899 28.7285 43.6367C28.6853 43.5835 28.6254 43.5571 28.5488 43.5571ZM34.166 43.3108V43.5996H33.8119V44.4342H33.4262V43.5996H33.074V43.3108H34.166ZM39.1404 43.3108V43.5837H38.4766V43.7241H39.0786V43.9845H38.4766V44.1485H39.1581V44.4342H38.0963V43.3108H39.1404ZM44.0673 44.1407V44.4342H43.1205V43.3108H43.5083V44.1407H44.0673Z" fill="#D8B35A"/>
<path d="M32.8534 29.9031C38.2316 29.9031 43.1007 32.0611 46.6253 35.55C50.1498 39.0389 52.3298 43.8589 52.3298 49.1828C52.3298 54.5066 50.1498 59.3266 46.6253 62.8155C43.1007 66.3044 38.2316 68.4624 32.8534 68.4624C27.4752 68.4624 22.606 66.3043 19.0814 62.8155C15.557 59.3266 13.377 54.5065 13.377 49.1828C13.377 43.8589 15.557 39.0389 19.0814 35.55C22.606 32.0612 27.4752 29.9031 32.8534 29.9031ZM45.9821 36.1867C42.6222 32.8608 37.9805 30.8036 32.8534 30.8036C27.7263 30.8036 23.0846 32.8608 19.7247 36.1867C16.3648 39.5126 14.2867 44.1075 14.2867 49.1828C14.2867 54.258 16.3648 58.8529 19.7247 62.1788C23.0846 65.5047 27.7263 67.5619 32.8534 67.5619C37.9805 67.5619 42.6222 65.5047 45.9821 62.1788C49.3419 58.8529 51.4201 54.258 51.4201 49.1828C51.4201 44.1075 49.3419 39.5126 45.9821 36.1867Z" fill="url(#paint1_linear_314_948)"/>
<defs>
<linearGradient id="paint0_linear_314_948" x1="-520.378" y1="-31.3517" x2="-605.408" y2="-31.3517" gradientUnits="userSpaceOnUse">
<stop stop-color="white"/>
<stop offset="0.05" stop-color="white"/>
<stop offset="0.07" stop-color="white"/>
<stop offset="0.12" stop-color="white"/>
<stop offset="0.15" stop-color="white"/>
<stop offset="0.23" stop-color="white"/>
<stop offset="0.31" stop-color="white"/>
<stop offset="0.39" stop-color="white"/>
<stop offset="0.47" stop-color="white"/>
<stop offset="1" stop-color="white"/>
</linearGradient>
<linearGradient id="paint1_linear_314_948" x1="-552.661" y1="-17.5458" x2="-591.614" y2="-17.5458" gradientUnits="userSpaceOnUse">
<stop stop-color="white"/>
<stop offset="0.05" stop-color="white"/>
<stop offset="0.07" stop-color="white"/>
<stop offset="0.12" stop-color="white"/>
<stop offset="0.15" stop-color="white"/>
<stop offset="0.23" stop-color="white"/>
<stop offset="0.31" stop-color="white"/>
<stop offset="0.39" stop-color="white"/>
<stop offset="0.47" stop-color="white"/>
<stop offset="1" stop-color="white"/>
</linearGradient>
</defs>
</svg>
